<svg width="45" height="42" viewBox="0 0 45 42" fill="none" xmlns="http://www.w3.org/2000/svg">
<path d="M26.8364 3.80078H29.0154L29.3267 9.55954L33.0621 11.116L37.7314 7.69183L40.2216 10.1821L36.7975 14.8514L38.3539 18.2755L43.957 19.5206V22.9448L38.3539 24.1899L36.7975 27.614L40.2216 32.2833L37.7314 34.7735L32.9065 31.3494L29.638 32.5946L28.3928 38.1977H26.8364" stroke="#391C6C" stroke-width="2"/>
<path d="M26.5254 26.8373C29.8778 26.8373 32.5954 24.1197 32.5954 20.7673C32.5954 17.4149 29.8778 14.6973 26.5254 14.6973" stroke="#391C6C" stroke-width="2"/>
<path d="M1 6.9144V3C1 1.89543 1.89543 1 3 1H22.9689C24.0734 1 24.9689 1.89543 24.9689 3V6.9144M1 6.9144H24.9689M1 6.9144V35.2412M24.9689 6.9144V35.2412M24.9689 35.2412V39C24.9689 40.1046 24.0734 41 22.9689 41H3C1.89543 41 1 40.1046 1 39V35.2412M24.9689 35.2412H1M9.09339 3.80156H16.2529M4.42412 12.2062H6.29183M9.09339 12.2062H11.2724M14.0739 12.2062H16.2529M19.0545 12.2062H21.2335M4.42412 17.1868H6.29183M4.42412 22.1673H6.29183M4.73541 31.1946H6.60311M9.40467 17.3424H11.2724M9.40467 22.323H11.2724M9.71595 31.3502H11.5837M14.3852 17.3424H16.2529M14.3852 22.323H16.2529M14.6965 31.3502H16.5642M19.3658 17.1868H21.2335M19.3658 22.1673H21.2335M19.677 31.1946H21.5447" stroke="#391C6C" stroke-width="2"/>
</svg>
