<svg width="40" height="51" viewBox="0 0 40 51" fill="none" xmlns="http://www.w3.org/2000/svg">
<path d="M26.5306 27.8061H33.1633L33.6421 27.1984C36.5729 23.4784 34.7837 17.974 30.2256 16.6884V16.6884C29.9921 16.6226 29.813 16.4347 29.7585 16.1982L29.7051 15.9668C28.3303 10.0095 20.4654 8.64107 17.1593 13.7839V13.7839C16.974 14.0722 16.6054 14.1811 16.2932 14.0398L15.3583 13.6169C11.0291 11.6585 6.12245 14.8242 6.12245 19.5757V19.6978C6.12245 19.9579 5.92877 20.1773 5.67068 20.2095V20.2095C2.63733 20.5887 0.597642 23.5082 1.28503 26.4868L1.53061 27.551H9.69388M26.5306 27.8061V28.7816C26.5306 28.9473 26.3963 29.0816 26.2306 29.0816H24.6929C24.5702 29.0816 24.4599 29.1563 24.4144 29.2702L23.5429 31.449C23.4983 31.5604 23.5244 31.6877 23.6093 31.7725L24.5328 32.696C24.6499 32.8132 24.6499 33.0031 24.5328 33.1203L23.1713 34.4817C23.0542 34.5989 22.8642 34.5989 22.7471 34.4817L21.8294 33.5641C21.7416 33.4763 21.6088 33.4516 21.4954 33.502L19.5659 34.3596C19.4576 34.4077 19.3878 34.5152 19.3878 34.6337V35.9245C19.3878 36.0902 19.2534 36.2245 19.0878 36.2245H17.9847M26.5306 27.8061V26.8306C26.5306 26.6649 26.3963 26.5306 26.2306 26.5306H24.713C24.5805 26.5306 24.4637 26.4437 24.4257 26.3168L23.776 24.1512C23.7443 24.0455 23.7732 23.9309 23.8512 23.8529L24.5328 23.1713C24.6499 23.0542 24.6499 22.8642 24.5328 22.7471L23.149 21.3633C23.041 21.2552 22.8689 21.2457 22.7495 21.3412L21.8111 22.0919C21.7317 22.1555 21.6254 22.1744 21.5288 22.1423L19.5929 21.497C19.4704 21.4561 19.3878 21.3415 19.3878 21.2123V19.6878C19.3878 19.5221 19.2534 19.3878 19.0878 19.3878H17.1367C16.971 19.3878 16.8367 19.5221 16.8367 19.6878V20.9704C16.8367 21.093 16.762 21.2033 16.6482 21.2489L14.4924 22.1112C14.3696 22.1603 14.2292 22.1233 14.1467 22.0201L13.4612 21.1632C13.3544 21.0298 13.1579 21.0123 13.0294 21.1248L11.4405 22.5151C11.3197 22.6208 11.3035 22.8029 11.4038 22.9282L12.1357 23.8431C12.2032 23.9274 12.2201 24.0416 12.18 24.1419L11.2999 26.342C11.2544 26.4559 11.1441 26.5306 11.0214 26.5306H9.99388C9.82819 26.5306 9.69388 26.6649 9.69388 26.8306V27.551M9.69388 27.551V28.7816C9.69388 28.9473 9.82819 29.0816 9.99388 29.0816H11.048C11.1569 29.0816 11.2573 29.1407 11.3102 29.2359L12.3901 31.1797C12.4552 31.2968 12.4347 31.4429 12.34 31.5376L11.4085 32.4691C11.3029 32.5746 11.291 32.7418 11.3806 32.8612L12.5792 34.4594C12.677 34.5898 12.861 34.6182 12.9936 34.5235L14.3938 33.5234C14.4843 33.4588 14.603 33.4495 14.7024 33.4991L16.4158 34.3559C16.5174 34.4067 16.5816 34.5106 16.5816 34.6242V35.9245C16.5816 36.0902 16.7159 36.2245 16.8816 36.2245H17.9847M17.9847 36.2245V40.3061M17.9847 45.9184H19.7531C19.974 45.9184 20.1531 46.0975 20.1531 46.3184V49.6C20.1531 49.8209 19.974 50 19.7531 50H16.4714C16.2505 50 16.0714 49.8209 16.0714 49.6V46.3184C16.0714 46.0975 16.2505 45.9184 16.4714 45.9184H17.9847ZM17.9847 45.9184V40.3061M17.9847 40.3061H30.8673V45.9184M17.9847 40.3061H5.10204V45.9184M30.8673 45.9184H32.5082C32.7291 45.9184 32.9082 46.0975 32.9082 46.3184V49.6C32.9082 49.8209 32.7291 50 32.5082 50H29.2265C29.0056 50 28.8265 49.8209 28.8265 49.6V46.3184C28.8265 46.0975 29.0056 45.9184 29.2265 45.9184H30.8673ZM5.10204 45.9184H6.99796C7.21887 45.9184 7.39796 46.0975 7.39796 46.3184V49.6C7.39796 49.8209 7.21887 50 6.99796 50H3.46122C3.24031 50 3.06122 49.8209 3.06122 49.6V46.3184C3.06122 46.0975 3.24031 45.9184 3.46122 45.9184H5.10204ZM20.9184 14.0306C23.5103 12.8044 24.6352 13.2087 26.2755 15.051M31.1224 20.9184C32.1709 22.7345 32.2468 23.7427 30.6122 25.5102" stroke="#391C6C" stroke-width="1.4" stroke-linecap="round"/>
<path d="M18.1128 30.8016C19.7674 30.8016 21.1087 29.4603 21.1087 27.8057C21.1087 26.1511 19.7674 24.8098 18.1128 24.8098C16.4582 24.8098 15.1169 26.1511 15.1169 27.8057C15.1169 29.4603 16.4582 30.8016 18.1128 30.8016Z" stroke="#391C6C" stroke-width="1.4"/>
</svg>
