<svg width="43" height="44" viewBox="0 0 43 44" fill="none" xmlns="http://www.w3.org/2000/svg">
<path d="M17.4286 3.42773V2.67773H16.8138L16.6932 3.28065L17.4286 3.42773ZM11.2381 5.3325L11.7931 4.828L11.3795 4.37304L10.8522 4.68938L11.2381 5.3325ZM8.85716 6.76108L8.47129 6.11796L7.96106 6.4241L8.14314 6.99058L8.85716 6.76108ZM4.33334 11.2849L4.56285 10.5709L3.99636 10.3888L3.69022 10.899L4.33334 11.2849ZM2.90477 13.6659L2.26165 13.28L1.95272 13.7949L2.38753 14.209L2.90477 13.6659ZM1 19.8563L0.848046 19.1219L0.25 19.2456V19.8563H1ZM1 22.7135H0.25V23.304L0.82402 23.4426L1 22.7135ZM2.90477 29.1421L2.38753 28.599L1.95272 29.0131L2.26165 29.528L2.90477 29.1421ZM4.33334 31.523L3.69022 31.9089L3.99976 32.4248L4.57051 32.2346L4.33334 31.523ZM8.85716 36.285L8.13417 36.0855L7.98262 36.6349L8.47129 36.9281L8.85716 36.285ZM11.2381 37.7135L10.8522 38.3567L11.4172 38.6956L11.8262 38.1791L11.2381 37.7135ZM17.4286 39.3802L16.697 39.5454L16.8291 40.1302H17.4286V39.3802ZM19.5715 8.86823C19.1573 8.86823 18.8215 9.20401 18.8215 9.61823C18.8215 10.0324 19.1573 10.3682 19.5715 10.3682V8.86823ZM31.0001 12.4754L30.4697 13.0057L30.6894 13.2254H31.0001V12.4754ZM24.3334 22.4397C23.9192 22.4397 23.5834 22.7755 23.5834 23.1897C23.5834 23.6039 23.9192 23.9397 24.3334 23.9397V22.4397ZM32.6667 26.9992L32.1023 27.4931L32.3264 27.7492H32.6667V26.9992ZM24.8096 27.4754L25.3615 26.9676L25.1445 26.7317L24.824 26.7256L24.8096 27.4754ZM24.8096 33.4278V34.1778H25.1387L25.3615 33.9356L24.8096 33.4278ZM19.5715 32.6778C19.1573 32.6778 18.8215 33.0136 18.8215 33.4278C18.8215 33.842 19.1573 34.1778 19.5715 34.1778V32.6778ZM16.6836 36.0809L17.4152 35.9157L16.6836 36.0809ZM18.1344 15.6847L18.1181 14.9349L18.1344 15.6847ZM4.33695 23.519L4.16097 24.248L4.33695 23.519ZM5.24698 26.9114L5.76422 27.4545L5.24698 26.9114ZM5.1399 15.7946L4.62266 16.3377L5.1399 15.7946ZM18.149 27.3473L18.1634 26.5975L18.149 27.3473ZM16.7768 6.68679L16.0414 6.5397L16.7768 6.68679ZM13.3358 7.6399L12.7808 8.14441L13.3358 7.6399ZM22.6667 2.67773H17.4286V4.17773H22.6667V2.67773ZM16.6932 3.28065L16.0414 6.5397L17.5122 6.83388L18.164 3.57482L16.6932 3.28065ZM13.8907 7.1354L11.7931 4.828L10.6832 5.83701L12.7808 8.14441L13.8907 7.1354ZM10.8522 4.68938L8.47129 6.11796L9.24303 7.4042L11.624 5.97562L10.8522 4.68938ZM8.14314 6.99058L9.09418 9.94937L10.5222 9.49035L9.57118 6.53157L8.14314 6.99058ZM7.52163 11.5219L4.56285 10.5709L4.10383 11.9989L7.06262 12.95L7.52163 11.5219ZM3.69022 10.899L2.26165 13.28L3.54789 14.0517L4.97646 11.6708L3.69022 10.899ZM2.38753 14.209L4.62266 16.3377L5.65715 15.2515L3.42201 13.1228L2.38753 14.209ZM4.01385 18.4669L0.848046 19.1219L1.15195 20.5908L4.31776 19.9358L4.01385 18.4669ZM0.25 19.8563V22.7135H1.75V19.8563H0.25ZM0.82402 23.4426L4.16097 24.248L4.51293 22.7899L1.17598 21.9844L0.82402 23.4426ZM4.72974 26.3683L2.38753 28.599L3.42201 29.6852L5.76422 27.4545L4.72974 26.3683ZM2.26165 29.528L3.69022 31.9089L4.97646 31.1372L3.54789 28.7562L2.26165 29.528ZM4.57051 32.2346L7.44138 31.2776L6.96704 29.8546L4.09617 30.8115L4.57051 32.2346ZM9.04166 32.7959L8.13417 36.0855L9.58016 36.4844L10.4876 33.1948L9.04166 32.7959ZM8.47129 36.9281L10.8522 38.3567L11.624 37.0704L9.24303 35.6418L8.47129 36.9281ZM11.8262 38.1791L13.7527 35.7456L12.5766 34.8145L10.6501 37.248L11.8262 38.1791ZM15.952 36.2461L16.697 39.5454L18.1602 39.215L17.4152 35.9157L15.952 36.2461ZM17.4286 40.1302H22.6667V38.6302H17.4286V40.1302ZM19.5715 10.3682H28.1429V8.86823H19.5715V10.3682ZM28.6958 10.125L31.3148 7.26787L30.2091 6.25428L27.5901 9.11143L28.6958 10.125ZM27.6126 10.1486L30.4697 13.0057L31.5304 11.945L28.6733 9.0879L27.6126 10.1486ZM31.0001 13.2254H35.2858V11.7254H31.0001V13.2254ZM24.3334 23.9397H29.3334V22.4397H24.3334V23.9397ZM28.769 23.6836L32.1023 27.4931L33.2312 26.5053L29.8978 22.6958L28.769 23.6836ZM29.8135 23.7659L32.6707 21.3849L31.7104 20.2326L28.8533 22.6135L29.8135 23.7659ZM32.6667 27.7492H36.4763V26.2492H32.6667V27.7492ZM24.2576 27.9832L26.9957 30.9594L28.0996 29.9438L25.3615 26.9676L24.2576 27.9832ZM26.9957 30.9594L29.7338 33.9356L30.8377 32.92L28.0996 29.9438L26.9957 30.9594ZM26.9957 29.9438L24.2576 32.92L25.3615 33.9356L28.0996 30.9594L26.9957 29.9438ZM24.8096 32.6778H19.5715V34.1778H24.8096V32.6778ZM24.824 26.7256L18.1634 26.5975L18.1346 28.0972L24.7952 28.2253L24.824 26.7256ZM18.1507 16.4345L23.3973 16.3204L23.3647 14.8208L18.1181 14.9349L18.1507 16.4345ZM13.7527 35.7456C14.4048 34.9218 15.7206 35.2213 15.952 36.2461L17.4152 35.9157C16.9061 33.6611 14.0113 33.0022 12.5766 34.8145L13.7527 35.7456ZM13.1786 21.5159C13.1786 18.7519 15.3874 16.4946 18.1507 16.4345L18.1181 14.9349C14.5392 15.0127 11.6786 17.9362 11.6786 21.5159H13.1786ZM7.44138 31.2776C8.39008 30.9614 9.30759 31.8319 9.04166 32.7959L10.4876 33.1948C11.0727 31.0739 9.05418 29.1589 6.96704 29.8546L7.44138 31.2776ZM4.16097 24.248C5.12319 24.4803 5.44653 25.6856 4.72974 26.3683L5.76422 27.4545C7.34116 25.9527 6.62982 23.3009 4.51293 22.7899L4.16097 24.248ZM4.62266 16.3377C5.35292 17.0331 5.00139 18.2626 4.01385 18.4669L4.31776 19.9358C6.49034 19.4863 7.26372 16.7815 5.65715 15.2515L4.62266 16.3377ZM9.09418 9.94937C9.40561 10.9183 8.49052 11.8333 7.52163 11.5219L7.06262 12.95C9.19418 13.6351 11.2074 11.6219 10.5222 9.49035L9.09418 9.94937ZM18.1634 26.5975C15.395 26.5442 13.1786 24.2848 13.1786 21.5159H11.6786C11.6786 25.102 14.5491 28.0282 18.1346 28.0972L18.1634 26.5975ZM16.0414 6.5397C15.8402 7.54529 14.5805 7.89421 13.8907 7.1354L12.7808 8.14441C14.2984 9.81379 17.0698 9.04618 17.5122 6.83388L16.0414 6.5397Z" fill="#391C6C"/>
<circle cx="25.2856" cy="3.90477" r="2.65477" stroke="#391C6C" stroke-width="1.5"/>
<circle cx="32.4287" cy="5.80906" r="2.65477" stroke="#391C6C" stroke-width="1.5"/>
<circle cx="37.666" cy="12.9536" r="2.65477" stroke="#391C6C" stroke-width="1.5"/>
<circle cx="34.333" cy="19.6196" r="2.65477" stroke="#391C6C" stroke-width="1.5"/>
<circle cx="25.7622" cy="16.2856" r="2.65477" stroke="#391C6C" stroke-width="1.5"/>
<circle cx="39.0962" cy="27.7153" r="2.65477" stroke="#391C6C" stroke-width="1.5"/>
<circle cx="31.9521" cy="35.3345" r="2.65477" stroke="#391C6C" stroke-width="1.5"/>
<circle cx="25.2856" cy="40.0942" r="2.65477" stroke="#391C6C" stroke-width="1.5"/>
<circle cx="18.9102" cy="21.3921" r="3.84525" stroke="#391C6C" stroke-width="1.5"/>
</svg>
