<svg width="44" height="42" viewBox="0 0 44 42" fill="none" xmlns="http://www.w3.org/2000/svg">
<path d="M9.36364 23.5455V16.2727H14.0909V23.5455M16.6364 23.5455V13.3636H21.3636V23.5455M23.9091 23.5455V17H28.2727V23.5455M30.8182 23.5455V12.6364H35.1818V23.5455M14.0909 10.4545L16.2727 9M20.6364 9L23.5455 10.4545M28.6364 10.4545L30.8182 9M1 25.7273V29.5455C1 30.65 1.89543 31.5455 3 31.5455H41.1818C42.2864 31.5455 43.1818 30.65 43.1818 29.5455V25.7273M1 25.7273V3C1 1.89543 1.89543 1 3 1H41.1818C42.2864 1 43.1818 1.89543 43.1818 3V25.7273M1 25.7273H43.1818M19.9091 28.6364H25M18.0909 33.7273V37.3636M18.0909 37.3636H26.4545M18.0909 37.3636L16.0048 39.2601C15.3285 39.8749 15.7635 41 16.6775 41H27.6767C28.5676 41 29.0138 39.9229 28.3838 39.2929L26.4545 37.3636M26.4545 37.3636V33.7273" stroke="#391C6C" stroke-width="1.5"/>
<circle cx="11.5452" cy="10.8182" r="2.56818" stroke="#391C6C" stroke-width="1.5"/>
<circle cx="18.8182" cy="7.90998" r="2.56818" stroke="#391C6C" stroke-width="1.5"/>
<circle cx="26.0911" cy="11.5447" r="2.56818" stroke="#391C6C" stroke-width="1.5"/>
<circle cx="33.3636" cy="7.18146" r="2.56818" stroke="#391C6C" stroke-width="1.5"/>
</svg>
