<svg width="96" height="96" viewBox="0 0 96 96" fill="none" xmlns="http://www.w3.org/2000/svg">
<path d="M34.9728 20.5371C34.9507 17.7367 34.902 15.6934 38.3827 15.6418L40.3477 15.6406C44.1007 15.6503 44.1138 17.1981 44.1043 20.5371C45.7042 20.8533 48.0622 21.8888 49.3882 22.8022C50.318 21.9082 52.5183 19.2149 54.1436 20.6526C55.1323 21.5273 58.1583 24.1289 58.3665 25.4003C58.6717 27.2646 56.8908 28.0289 56.0692 29.2748L56.0285 29.3373C56.4348 30.9803 57.4464 32.0699 57.6729 34.1744C59.7436 34.1793 62.4427 33.7836 62.942 36.4566C63.0851 37.2235 63.0695 40.1978 62.912 40.9471C62.5085 42.8648 59.6741 44.1089 58.4353 43.1901C57.9768 42.8502 57.8045 42.0612 58.2086 41.6151C59.0353 40.702 60.6575 42.0605 60.9358 40.3827C61.0267 39.8346 61.1416 36.8294 60.6661 36.4257C59.9647 35.8298 57.138 36.6811 56.2687 35.9618C55.7778 35.5555 55.7426 34.5644 55.5958 33.988C55.26 32.6701 53.6544 29.5844 53.6088 29.0722C53.5132 27.9985 56.5368 26.5437 56.2865 25.6675C56.2181 25.4279 53.5595 22.8018 53.2455 22.5738C52.212 21.8238 50.976 24.9348 49.6449 25.0902C49.043 25.1605 48.2497 24.4568 47.7519 24.1476C46.4653 23.3483 42.7402 22.3448 42.4627 22.1129C41.4352 21.2536 42.591 18.4296 41.8036 17.8419C41.5267 17.6352 38.2126 17.6315 37.7529 17.6924C36.2613 17.8902 37.5888 21.0194 36.8521 21.9012C36.6376 22.1577 33.0275 23.162 32.2301 23.5383C28.2166 25.4328 30.3851 25.6876 26.8038 22.6589C26.0257 22.0008 25.266 23.2506 24.7715 23.7441C24.377 24.1381 22.8825 25.3032 22.8976 25.8963C22.9185 26.7033 25.3674 28.027 25.4651 29.1048C25.4979 29.4687 23.9846 32.1475 23.705 32.9105C23.5175 33.4221 22.9104 35.6727 22.7193 35.8945C21.9468 36.7915 18.7968 35.7921 18.3053 36.3933C18.1826 36.9074 18.1673 40.864 18.3565 41.2765C18.7659 41.4627 21.0127 41.3849 21.609 41.3823C22.9981 41.3843 22.9612 41.8443 23.2391 43.1C23.513 44.3375 24.029 45.4248 24.6086 46.5605C24.8775 47.1158 25.911 48.2015 25.5112 48.8476C24.8797 49.8681 23.3962 50.8846 22.7926 51.8937C23.7378 53.0667 25.1953 54.338 26.2753 55.4615C29.1172 52.6111 28.7803 51.8258 31.9796 53.6526C33.3643 54.4795 34.8834 54.73 36.4042 55.2038C37.7255 55.6154 36.506 59.3669 37.3485 59.5263C38.2267 59.6926 41.0328 59.6847 41.8995 59.5133C42.7207 58.7948 41.5486 55.3591 42.794 54.9888C43.373 54.8165 46.0128 53.7458 46.3391 53.9811C48.6596 55.6561 44.8891 56.4395 44.2498 56.6946L44.2083 56.7115C44.1956 61.7037 43.8875 61.5044 39.1428 61.6683C35.0186 61.8106 34.9608 60.6539 34.9728 56.9611C33.1588 56.4291 31.3166 55.36 29.816 54.9501C28.4409 55.9295 27.0258 58.63 24.7507 56.833C24.1087 56.3258 23.4774 55.4667 22.8956 54.9488C19.4071 51.8433 20.6476 51.0989 23.2126 48.3327C22.2024 46.4611 21.804 45.442 21.2386 43.4105C16.218 43.4309 16.2101 43.33 16.0906 38.2392C15.9879 33.8671 17.5762 34.168 21.2386 34.1744C21.489 32.854 22.4413 30.4334 23.2126 29.3373C20.3598 26.7445 19.8455 25.495 22.682 22.8627C23.6452 21.9689 24.5113 20.6624 25.8778 20.4378C27.8838 20.0737 28.4653 21.6998 29.816 22.6206C30.7625 21.8061 33.6975 20.5696 34.9728 20.5371Z" fill="black"/>
<path d="M38.6648 46.6367C41.413 46.8025 43.4963 46.1507 45.4765 44.1432C45.8603 43.7539 46.3699 42.9934 46.7858 42.7637C47.3476 42.7967 47.8413 44.5727 47.1807 45.3375C43.7719 49.2846 37.4273 49.8372 33.3548 46.597C26.1456 40.9455 29.5343 29.7679 38.8534 28.7333C43.4009 28.5062 47.3159 30.9497 49.0317 35.1929C49.7573 36.8258 48.1182 37.6742 47.5154 36.8532C47.2598 36.4699 47.1719 35.9815 46.9848 35.5628C44.8568 30.885 39.0985 29.2844 34.8934 32.3117C28.9004 36.6261 31.3975 45.5796 38.6648 46.6367Z" fill="black"/>
<path d="M53.7446 58.584L48.842 41.8096C48.1471 39.4895 49.5427 37.1943 52.0147 36.9543C55.5417 36.6841 55.9104 39.7201 56.6472 42.233L57.8485 46.2035C58.133 47.1536 58.412 48.1891 58.7345 49.1203C60.8454 47.6268 63.8069 47.8828 64.7836 50.6229C67.0329 48.8248 69.6901 49.7347 70.7542 52.284C72.4177 50.9565 74.722 51.1085 76.1369 52.7107C76.877 53.5486 77.0727 54.9795 77.3519 56.0589L79.3445 63.5973C80.7436 68.7371 80.1447 70.806 76.5376 75.0343C76.6687 75.7899 77.195 78.6721 76.9854 79.2628C76.6945 80.0825 75.41 80.166 75.0586 79.3415C74.8085 78.7548 74.2722 75.1166 74.4037 74.4898C74.5501 73.7925 76.142 72.2741 76.6488 71.5578C78.2508 69.2936 78.1655 67.2386 77.4924 64.7649L75.5229 57.191C75.2767 56.213 74.9739 53.8336 73.8466 53.5271C72.6665 53.2063 71.9088 53.8494 71.5722 54.9444C71.7629 55.8082 72.5947 57.6326 70.9803 57.7471C68.8542 57.7794 69.8868 51.392 67.1714 51.8011C64.6764 52.1769 66.0892 54.6429 66.214 55.8787C65.6105 57.3915 64.2879 56.8171 63.887 55.1323C63.6127 53.9203 63.271 52.8129 62.9225 51.6204C62.4864 50.1277 60.8315 49.8069 59.8758 50.9803C58.8732 52.3411 60.7499 54.0935 60.2264 55.5101C59.9879 56.1553 58.6807 56.2552 58.4034 55.5112C58.0957 54.686 57.9065 53.8305 57.6575 52.9798L56.0225 47.4251C55.334 45.0654 54.6663 42.2925 53.8392 40.0231C53.1264 38.2747 50.3454 39.0444 50.7168 40.7786C51.0164 42.1775 51.5532 43.6771 51.9511 45.0609L56.1183 59.1365C56.4025 60.1083 57.6299 62.8655 56.9789 63.5904C56.0062 64.674 54.7929 62.8966 54.2259 62.2661L51.9153 59.7168C50.9679 58.6728 49.6735 56.7206 48.1546 58.3717C47.6039 58.9704 47.5126 59.711 47.9195 60.4209L52.7094 68.6356C53.2797 69.6054 53.8773 70.7062 54.4775 71.6555C55.5434 72.9487 58.4714 74.28 59.3514 75.8291C59.6133 76.2901 60.0232 79.4073 59.3742 79.8455C57.4499 81.1445 57.5095 77.813 57.5977 76.7021C56.707 76.2275 53.8124 73.7055 52.8918 73.025C52.6081 72.8154 50.9729 69.7657 50.6484 69.2124L47.2687 63.4083C46.8262 62.6377 46.2764 61.845 45.9181 61.0398C44.7567 58.413 46.8766 55.5911 49.6942 55.719C51.6633 55.8084 52.5237 57.2501 53.7446 58.584Z" fill="black"/>
</svg>
