<svg width="96" height="96" viewBox="0 0 96 96" fill="none" xmlns="http://www.w3.org/2000/svg">
<path d="M25.3149 55.8325C21.5835 55.8305 18.6829 56.347 15.6436 53.6247C12.1969 50.5375 12.5646 47.303 12.5672 43.1378L12.5676 31.5292C12.5681 30.2708 12.5109 28.6402 12.7709 27.4343C13.6269 23.4644 17.0906 20.7292 21.1131 20.5587L21.4853 20.5544L55.8563 20.5568C59.4476 20.5553 62.3635 20.2552 65.1782 23.065C67.6502 25.5327 67.731 27.871 67.7297 31.1206L67.7288 45.2915C79.1087 45.1177 85.5758 57.277 79.4192 66.6588C80.6681 68.0853 83.442 70.2095 83.5226 71.9945C83.6245 73.7838 82.1359 75.2429 80.3822 75.302C78.3921 75.3833 76.026 72.3162 74.5626 70.9574C73.5294 71.389 72.8001 71.6915 71.7433 72.016C61.3671 74.5625 53.2028 65.9903 55.0811 55.8325H37.7291C37.2293 56.4374 36.2738 57.3273 35.6919 57.9048L30.009 63.6807C29.2854 64.4062 27.8001 66.2137 27.2792 64.1742C26.6008 61.5194 25.8568 58.5262 25.3149 55.8325ZM46.4394 22.4902L23.8749 22.4888C17.1451 22.4883 14.5336 24.2639 14.5345 31.247L14.5373 46.6987C14.5655 49.9368 16.6251 52.93 19.8369 53.6977C21.2301 54.0305 26.4152 53.5602 26.8888 54.2962C27.1656 54.7263 28.5684 61.0051 28.8107 62.053L31.4726 59.3663L34.3899 56.4025C35.2688 55.4922 36.4161 53.8713 37.6824 53.8807L55.6609 53.8913C57.558 49.3255 60.8651 46.5432 65.739 45.4955L65.7398 30.8502C65.7375 22.8687 61.9028 22.4873 55.0065 22.4902H46.4394ZM67.2332 47.3268C60.8501 47.8885 56.1341 53.5233 56.7053 59.9056C57.2766 66.2879 62.9183 70.9957 69.2996 70.4152C75.6679 69.8358 80.3638 64.2083 79.7936 57.8392C79.2236 51.4702 73.6031 46.766 67.2332 47.3268ZM78.0878 68.2463C77.4478 68.9088 77.0961 69.2611 76.3637 69.8311C77.4143 70.8672 78.7153 72.3385 79.7803 73.2573C81.1215 73.5142 82.0429 72.2626 81.3501 71.5312C80.298 70.4204 79.1378 69.3648 78.0878 68.2463Z" fill="black"/>
<path d="M32.0255 42.2862C29.2724 43.7046 26.4269 43.733 24.052 41.4515C20.0013 37.5597 22.6045 30.6668 28.2622 30.5213C33.7685 30.1827 36.844 36.2774 33.4938 40.9345L36.1409 43.5361C36.4872 43.8771 37.6837 44.8904 37.5916 45.3706C37.0985 47.9408 34.8144 45.025 34.0872 44.2865L32.0255 42.2862ZM27.8939 32.4918C25.4744 32.825 23.7815 35.0543 24.1102 37.4744C24.439 39.8946 26.6652 41.5915 29.086 41.2671C31.513 40.942 33.2152 38.7087 32.8857 36.2825C32.5561 33.856 30.3198 32.1578 27.8939 32.4918Z" fill="black"/>
<path d="M36.3203 31.7351C36.4726 31.137 36.5558 30.8886 37.1984 30.7853C37.6202 30.7419 38.7687 30.7838 39.2641 30.7841L56.2317 30.7894C58.2113 30.7884 57.868 32.463 56.7634 32.7193L39.5581 32.7199C38.2311 32.7236 36.6734 33.2051 36.3203 31.7351Z" fill="black"/>
<path d="M56.8392 38.7308C56.425 38.773 55.3227 38.7321 54.8382 38.7318L41.8609 38.7305C40.3317 38.7306 38.5163 38.806 37.0251 38.6545C36.5749 38.6088 35.8662 37.3131 37.2015 36.8073C37.9185 36.769 39.0593 36.806 39.8014 36.8061L52.3478 36.8067C53.8433 36.8056 55.5979 36.7325 57.0621 36.8924C57.5175 36.9421 58.0472 38.3212 56.8392 38.7308Z" fill="black"/>
<path d="M43.0098 44.8502C41.7483 44.8563 38.387 45.3452 39.2379 43.3503C39.3813 43.014 39.6935 42.9088 40.0092 42.8418C40.7296 42.8263 41.4534 42.855 42.1994 42.837C44.1232 42.7908 44.4532 44.2995 43.0098 44.8502Z" fill="black"/>
<path d="M49.8416 44.8561C49.0211 44.9005 47.3347 44.947 46.5581 44.7149C45.7455 44.4721 45.6947 43.171 46.6865 42.8477C47.463 42.8204 48.9318 42.7879 49.6843 42.8905C50.7768 43.0396 50.9207 44.2148 49.8416 44.8561Z" fill="black"/>
<path d="M56.8368 44.8506C56.0754 44.8823 53.6949 44.9689 53.1272 44.6723C52.2348 44.206 52.6241 43.0943 53.4459 42.8423C54.38 42.8256 56.1213 42.7307 56.9657 42.9267C57.8788 43.1387 57.8797 44.3627 56.8368 44.8506Z" fill="black"/>
<path d="M67.7271 63.6527L65.0114 63.6583C64.5102 63.6591 63.8303 63.7041 63.3541 63.5993C62.3431 63.3767 62.3084 61.8583 63.3792 61.705C63.9394 61.6247 64.6457 61.6677 65.2199 61.6682L68.7512 61.6725L71.314 61.6639C71.8362 61.66 72.3212 61.6487 72.8489 61.6864C74.0541 61.7359 74.1019 63.4834 72.9316 63.6268C72.3961 63.6925 71.7441 63.658 71.1964 63.6574L67.7271 63.6527Z" fill="black"/>
</svg>
