<svg width="96" height="96" viewBox="0 0 96 96" fill="none" xmlns="http://www.w3.org/2000/svg">
<path d="M42.3179 15.872C43.2878 14.8594 46.1887 12.4292 47.5107 12.1948C50.0483 11.8935 51.8146 14.6415 53.8593 15.872C57.7598 15.7997 60.4111 13.2222 62.2675 18.2492L63.0278 20.3528C64.0777 23.279 67.3107 22.0096 69.2425 24.2633C70.706 25.9707 69.6357 29.1036 69.4261 31.3195C70.3207 32.4338 72.2647 34.537 72.74 35.7535C73.8933 38.7048 70.5052 40.5346 69.4261 42.7349C69.5172 44.4893 70.2935 47.1981 69.8999 48.7958C69.3267 51.1233 65.5981 51.3355 63.7103 52.3591C62.7743 53.8482 61.7588 56.4599 60.9022 58.1352C61.5192 59.3725 62.0594 60.7302 62.5938 62.0091L65.0982 68.0502C65.471 68.9485 67.3767 73.0795 67.4005 73.7011C67.4553 75.1349 65.2775 74.7149 64.3882 74.7136L59.9527 74.7106L59.954 80.1295C59.9542 80.6733 60.3584 85.3701 58.4836 83.7577L48.4248 75.1505L47.9918 74.7106C47.3521 75.394 46.5449 76.0326 45.8253 76.6433L39.3886 82.1669C38.8092 82.6645 37.5728 83.8608 36.9361 84.0771C35.606 83.6105 36.0974 81.8045 36.0978 80.4254L36.1006 74.4245L31.8937 74.4273C30.6012 74.4292 28.8974 74.8722 28.535 73.4888C28.6312 73.028 29.03 72.1533 29.2302 71.6798L30.4666 68.7513C31.9162 65.2726 33.424 61.6439 34.7767 58.1352C33.8598 56.2857 33.3721 54.0771 32.4873 52.3591C30.7402 51.3974 28.0043 51.2753 26.6403 49.7148C25.3593 48.2493 26.4063 44.665 26.6369 42.7349C25.4208 40.4315 21.8718 38.3693 23.3984 35.3776C23.759 34.6713 26.0077 31.9212 26.6369 31.3195C26.4927 30.4679 26.3947 29.5236 26.2272 28.6857C24.9391 22.2393 28.5593 23.5829 32.4329 21.5178L32.4873 21.4881C32.8214 20.6813 33.4317 19.0456 33.6556 18.3102C35.1923 13.2629 38.6555 15.6209 42.3179 15.872ZM47.7663 13.9281C46.2991 14.3421 43.7791 17.5026 42.3423 17.6534C40.5355 17.843 36.8504 15.8891 35.8688 17.6541C35.1843 18.8849 34.5712 21.7722 33.8193 22.6981C33.097 23.5876 29.6686 24.2093 28.4887 24.926C26.5392 26.1102 28.9358 29.9397 28.3002 31.805C27.7975 33.2796 24.3676 35.8328 24.8512 37.3244C24.9997 37.7823 25.3988 38.1875 25.697 38.5574L27.1977 40.4472C27.659 41.0271 28.3201 41.6723 28.4069 42.4484C28.5571 43.7922 27.4563 47.1533 27.8071 48.1895C28.3557 49.8106 32.8272 49.7742 33.9468 51.38C34.7615 52.5485 35.4715 56.482 36.4186 56.9163C37.5507 57.4353 41.3168 55.7397 42.8504 56.1758C43.8297 56.4543 47.6487 60.0389 47.9596 60.0278L47.9918 59.9825C49.1622 59.2617 52.3293 56.3954 53.1736 56.1524C54.4889 55.7735 57.3427 56.96 58.9711 57.073C60.9363 56.2325 61.018 52.3332 62.5261 50.9345C63.6348 49.906 67.6193 49.7211 68.161 48.3468C68.618 47.1873 67.2809 43.0617 67.694 42.0297C68.2233 40.7078 70.6786 38.9095 71.1548 37.493C71.8193 35.5169 68.1734 33.5223 67.6587 31.6945C67.3649 30.6503 68.3356 27.7973 68.266 26.4316C68.1457 24.0756 63.6712 24.3035 62.2306 22.6996C61.1579 21.5054 60.6704 17.4702 59.3926 17.0045C58.228 16.5801 54.8602 17.9281 53.4869 17.6112C51.6815 17.1948 49.4602 13.832 47.7663 13.9281ZM53.6519 57.8592C52.6966 58.543 49.6113 60.8958 48.9445 61.694L48.9432 69.5628C48.9428 70.5663 48.8836 72.3753 48.9445 73.3268C51.2247 74.9969 53.5027 77.2454 55.709 79.0649C56.363 79.6231 57.628 80.6264 58.184 81.1703V58.7442C56.9847 58.486 54.823 57.9633 53.6519 57.8592ZM42.3179 57.8592C41.4713 57.9636 38.6056 58.513 37.8548 58.7442V81.1703C38.6495 80.3729 39.6198 79.6143 40.4718 78.8547L44.686 75.2667C45.3095 74.7413 46.4988 73.6124 47.1537 73.3268V61.694C46.726 61.3276 42.533 57.9321 42.3179 57.8592ZM36.1006 59.7464C35.1055 61.9694 30.7848 72.2845 30.8114 72.6119H36.1006L36.1083 61.1247C36.1117 60.8249 36.1396 60.0096 36.1006 59.7464ZM59.9527 60.4975L59.9512 69.044C59.951 70.163 59.891 71.9035 59.9527 72.9479H65.1937C65.1798 72.3636 60.0093 60.542 59.9527 60.4975Z" fill="black"/>
<path d="M49.148 53.3921C40.0632 54.0331 32.177 47.1931 31.5271 38.1089C30.8774 29.0249 37.7099 21.1321 46.7932 20.4736C55.889 19.8142 63.7949 26.6579 64.4458 35.7543C65.0964 44.8507 58.2449 52.75 49.148 53.3921ZM47.3686 22.2316C39.2489 22.5727 32.9416 29.4284 33.2771 37.5481C33.6125 45.668 40.4639 51.9802 48.5838 51.6502C56.7117 51.32 63.0314 44.4605 62.6956 36.3327C62.36 28.2052 55.496 21.8902 47.3686 22.2316Z" fill="black"/>
<path d="M44.8652 33.4002C45.1947 32.297 47.0427 26.542 47.7698 26.113C49.0609 26.0226 49.1374 27.6346 49.5298 28.7255C50.086 30.272 50.5624 31.8573 51.1243 33.4002L55.743 33.398C56.4771 33.398 57.3124 33.3635 58.0279 33.4465C58.6487 33.5658 58.9078 34.3776 58.438 34.7898C56.7169 36.2993 54.616 37.544 52.929 39.0711C53.2249 40.069 55.2842 45.7666 54.8787 46.4181C54.2841 47.486 52.29 45.6708 51.7609 45.2988C50.5288 44.4327 49.2812 43.5175 47.9953 42.7353C46.2778 43.6701 44.1632 45.3254 42.5207 46.4699C41.7343 47.018 41.1615 46.901 40.8057 45.9807C40.9502 45.3595 41.4486 44.029 41.6691 43.3761L43.0873 39.0711L39.8147 36.632C39.2033 36.175 37.4185 35.1239 37.3843 34.3053C37.3189 32.9948 39.3709 33.3968 40.2784 33.3978L44.8652 33.4002ZM47.9953 29.9521L46.9594 32.8763C46.7908 33.353 46.4592 34.8239 45.96 35.065C45.4633 35.305 41.7758 35.1863 40.957 35.1856L43.2458 36.9385C43.7095 37.2897 44.9164 37.9739 45.0192 38.6123C45.0975 39.0995 43.7659 42.7413 43.5289 43.5365C44.7606 42.7908 46.5702 41.282 47.7698 40.7429C48.6688 40.7063 51.6004 42.9132 52.363 43.5365C52.126 42.6205 50.7207 38.9114 51.1213 38.2595C51.3576 37.8749 54.3282 35.6843 54.9533 35.1856L52.0084 35.1916C51.4806 35.1925 50.262 35.3673 49.849 34.9383C49.3789 34.4504 48.4165 30.8943 47.9953 29.9521Z" fill="black"/>
</svg>
