<svg width="44" height="42" viewBox="0 0 44 42" fill="none" xmlns="http://www.w3.org/2000/svg">
<path d="M19.6994 24.5384C-2.89624 6.6568 -6.83153 50.8801 17.9864 38.239C18.1673 38.1468 18.3458 38.0182 18.4894 37.8747L30.2015 26.1658C30.3334 26.0339 30.4896 25.9145 30.658 25.8343C37.4614 22.597 41.6998 41.5704 26.8338 32.3868M23.2673 35.9533C40.9614 54.3548 51.9841 16.2245 30.2048 20.1603C29.8783 20.2193 29.554 20.3722 29.3 20.5856L12.2999 34.8652C12.0089 35.1097 11.6462 35.2747 11.2666 35.2942C2.82719 35.7281 6.01886 19.7508 16.1342 28.8197" stroke="#391C6C" stroke-width="2"/>
<path d="M2.22461 21.686V17.9795C2.22461 16.8749 3.12004 15.9795 4.22461 15.9795H4.45783C5.26523 15.9795 5.99344 15.494 6.30398 14.7487L7.10101 12.8359C7.39134 12.1391 7.26462 11.3382 6.77337 10.7651L6.59879 10.5614C5.93586 9.78799 5.96015 8.63988 6.6552 7.89519L9.32382 5.03594C9.9676 4.34618 11.0059 4.20016 11.8149 4.68559L13.0528 5.42831C13.6391 5.78012 14.3646 5.80798 14.9762 5.50218L16.1673 4.90661C16.6055 4.68755 16.948 4.31533 17.1299 3.86054L17.7712 2.25722C18.0749 1.4979 18.8103 1 19.6282 1H23.3398C24.1576 1 24.893 1.4979 25.1968 2.25722L25.8022 3.77071C26.0055 4.27892 26.4081 4.6816 26.9163 4.88489L28.6435 5.57573C29.2915 5.83496 30.0279 5.73757 30.5862 5.31878L30.9681 5.03237C31.8408 4.37784 33.0771 4.54339 33.7468 5.40449L36.7596 9.2781C37.2325 9.88606 37.3142 10.7115 36.9698 11.4004L36.6596 12.0207C36.3209 12.6983 36.394 13.5091 36.8485 14.1151L37.6761 15.2187C38.0354 15.6976 38.5991 15.9795 39.1979 15.9795V15.9795C40.2484 15.9795 41.1 16.8311 41.1 17.8817V20.9727" stroke="#391C6C" stroke-width="2"/>
<path d="M28.9737 18.119C28.9737 14.5735 25.6204 11.6992 21.4839 11.6992C17.3474 11.6992 13.9941 14.5735 13.9941 18.119" stroke="#391C6C" stroke-width="2"/>
</svg>
