<svg width="43" height="42" viewBox="0 0 43 42" fill="none" xmlns="http://www.w3.org/2000/svg">
<path d="M7.71533 9.46715V7.13139M33.4088 9.75912H37.8759C40.0851 9.75912 41.8759 11.55 41.8759 13.7591V27.6569C41.8759 29.8661 40.0851 31.6569 37.8759 31.6569H33.4088M33.4088 9.75912H23.9781C21.769 9.75912 19.9781 11.55 19.9781 13.7591V27.6569C19.9781 29.8661 21.769 31.6569 23.9781 31.6569H33.4088M33.4088 9.75912V7.13139M33.4088 31.6569V34.2847M7.71533 28.4453V34.2847M7.71533 34.2847V37C7.71533 39.2091 9.50619 41 11.7153 41H29.4088C31.6179 41 33.4088 39.2091 33.4088 37V34.2847M7.71533 34.2847H33.4088M7.71533 7.13139V5C7.71533 2.79086 9.50619 1 11.7153 1H29.4088C31.6179 1 33.4088 2.79086 33.4088 5V7.13139M7.71533 7.13139H33.4088M23.4818 4.06569H17.3504M22.6058 25.6715H28.7372M32.8248 25.6715H39.5401M32.8248 28.1533H37.7883M22.6058 28.1533H27.2774M22.8978 12.6788V16.7664H38.9562V12.6788H22.8978ZM28.7372 19.1022V23.4818H22.8978V19.1022H28.7372ZM38.9562 23.4818H33.1168V19.2482L38.9562 19.1022V23.4818ZM3.0438 21.146L2.75235 22.1661C2.57182 22.7979 2.74804 23.478 3.2127 23.9426L3.65309 24.383C3.98138 24.7113 4.49096 24.774 4.88907 24.5352V24.5352C5.33366 24.2684 5.90795 24.3809 6.21903 24.7957L6.92485 25.7368C7.23867 26.1552 7.73117 26.4015 8.2542 26.4015V26.4015C8.82713 26.4015 9.35965 26.1063 9.6633 25.6205L10.056 24.9922C10.3843 24.4669 11.0582 24.2773 11.6123 24.5543V24.5543C12.0748 24.7856 12.6335 24.6949 12.9992 24.3292L13.4679 23.8606C13.8819 23.4466 14.0389 22.8406 13.8781 22.2776V22.2776C13.6854 21.6034 13.9506 20.8821 14.534 20.4932L14.5655 20.4721C15.0285 20.1635 15.3066 19.6439 15.3066 19.0875V18.4951C15.3066 17.9678 15.024 17.4809 14.5661 17.2192L14.1006 16.9532C13.6408 16.6905 13.4868 16.1011 13.7592 15.647V15.647C13.9822 15.2753 13.9237 14.7996 13.6172 14.4931L13.0577 13.9336C12.6436 13.5196 12.0377 13.3625 11.4747 13.5234V13.5234C10.8005 13.716 10.0792 13.4509 9.69024 12.8675L9.66923 12.836C9.36057 12.373 8.84096 12.0949 8.28453 12.0949H8.00252C7.46309 12.0949 6.96425 12.3814 6.69245 12.8474V12.8474C6.34818 13.4375 5.65178 13.7247 4.99159 13.5486L4.86232 13.5141C4.27892 13.3586 3.65683 13.5257 3.22989 13.9526L3.18316 13.9993C2.73442 14.4481 2.55403 15.0993 2.70795 15.715L3.0438 17.0584L1.76051 17.7917C1.29023 18.0604 1 18.5605 1 19.1022V19.1022C1 19.6438 1.29023 20.1439 1.76051 20.4127L3.0438 21.146Z" stroke="#391C6C" stroke-width="1.2" stroke-linecap="round"/>
<circle cx="8.29959" cy="19.1013" r="3.51971" stroke="#391C6C" stroke-width="1.2"/>
<circle cx="20.5619" cy="37.496" r="1.16788" stroke="#391C6C" stroke-width="1.2"/>
</svg>
