<svg width="96" height="96" viewBox="0 0 96 96" fill="none" xmlns="http://www.w3.org/2000/svg">
<path d="M43.7777 22.9686C40.6382 18.9153 41.9477 13.6477 47.2537 12.7958C52.8334 12.0967 56.087 18.3889 52.2472 22.9686C53.2584 23.5392 54.1055 23.7603 55.1278 24.584C57.0041 26.0961 60.8156 30.8984 58.8266 33.3636C57.7974 34.6394 56.3585 34.0893 55.013 34.2046C53.498 34.3343 54.1489 36.6443 53.9332 37.7528C53.4062 40.4652 51.6765 42.3471 48.8574 42.7851C45.6302 43.0743 42.9834 41.1991 42.3043 38.017C42.1222 37.1635 42.2452 35.5238 42.0262 34.8541C41.5325 33.3438 34.3247 36.0239 37.3749 28.9668C38.5837 26.0639 40.9419 24.1259 43.7777 22.9686ZM47.5378 14.6838C45.3105 14.9501 43.7195 16.9702 43.9832 19.198C44.2466 21.4257 46.2647 23.0191 48.4927 22.7585C50.7249 22.4973 52.3217 20.4749 52.0577 18.2431C51.7939 16.0113 49.7692 14.4171 47.5378 14.6838ZM45.4927 24.2894C42.5705 25.4105 40.4002 26.8066 39.0422 29.8343C36.9131 34.5813 41.8976 30.4771 43.7205 33.9402C44.7829 35.959 42.8681 39.3449 46.847 40.7412C48.1069 41.1833 49.2574 40.8755 50.3825 40.2683C51.4954 39.1465 52.2763 38.1205 52.1139 36.4902C51.4961 30.2946 57.6737 33.5108 57.4822 31.6433C56.9621 28.0638 53.661 25.3311 50.3825 24.2894C47.7429 25.1795 46.2922 24.1439 45.4927 24.2894Z" fill="black"/>
<path d="M61.3952 45.0001C59.7313 45.1475 57.4691 45.1214 57.1896 42.9869C57.0298 41.7678 56.5611 36.701 57.7986 36.052C60.2544 35.4826 58.3528 41.7655 59.1225 42.8819C59.6192 43.6021 62.6498 42.3997 61.9776 44.4537C61.884 44.7398 61.6545 44.8784 61.3952 45.0001Z" fill="black"/>
<path d="M35.2939 45C34.8767 45.0013 34.2865 44.8968 34.167 44.5087C33.6176 42.7235 35.7598 43.3762 36.6152 43.0273C37.135 42.8152 36.8545 37.6016 36.958 36.6504C36.9883 36.374 37.3221 36.1668 37.548 36.0519C38.5373 35.991 38.7553 36.4867 38.7608 37.3991C38.7701 38.9628 38.7347 40.5311 38.7715 42.0947C38.8892 44.675 37.4886 45.0287 35.2939 45Z" fill="black"/>
<path d="M23.8604 49.0223C21.3385 45.8271 23.3532 41.56 27.3987 41.2253C31.1165 40.8424 33.8317 45.4928 31.2307 49.0223C34.8811 50.8825 37.9568 57.8251 33.2986 58.3349C32.3144 58.4425 32.5595 59.2491 32.5777 60.0186C33.1818 60.049 34.057 60.0222 34.6758 60.0216L38.7577 60.0186C38.3305 60.5131 37.3889 61.3574 36.8827 61.8363C36.533 61.879 35.359 61.8402 34.9336 61.8396L30.6998 61.8363C30.6942 59.5713 30.0824 56.8034 33.0179 56.5519C34.0308 56.4651 33.682 54.8931 33.443 54.2545C32.7955 52.5243 31.7268 51.3361 30.0569 50.5497L29.5507 50.3406C28.1213 50.8728 27.008 50.8184 25.5873 50.3406C22.157 51.6261 20.3768 55.7472 23.1095 58.6765C24.592 60.2658 26.605 60.0286 28.5865 60.0186V61.8363C27.4625 61.8333 25.8963 61.9454 24.8442 61.7005C18.7366 60.2284 18.3008 52.4273 23.8604 49.0223ZM27.3323 43.1153C25.7517 43.2291 24.5607 44.5999 24.6689 46.1811C24.7771 47.7623 26.1438 48.9582 27.7253 48.8554C29.3148 48.7523 30.518 47.3774 30.4092 45.7881C30.3005 44.1991 28.921 43.0008 27.3323 43.1153Z" fill="black"/>
<path d="M64.8331 48.844C62.2939 46.1012 64.3062 41.575 68.3222 41.2257C71.1569 40.918 73.6681 43.8136 73.2544 46.5582C73.1067 47.5394 72.6994 48.2147 72.1454 49.0227C77.5414 51.7146 77.3389 59.1248 71.8274 61.4168C71.0474 61.7412 68.7696 62.0367 67.9413 61.6739C67.0827 61.2979 67.4352 59.7769 68.6483 59.9329C71.9824 60.3614 75.0723 57.3257 74.0646 53.9185C73.5229 52.0334 72.2534 51.1709 70.6362 50.245C69.0773 50.6965 67.9658 50.8482 66.4008 50.245C64.5976 50.4104 62.4721 53.7578 62.4342 55.5932C62.3982 56.4379 63.4113 56.3892 63.9803 56.5937C65.9157 57.2901 65.3884 60.0467 65.3847 61.8366L60.9931 61.8353C60.2661 61.8346 59.401 61.8017 58.6939 61.8366C58.3759 60.9784 57.8828 60.5116 57.1328 60.019C57.8123 59.9665 58.5852 60.0147 59.2816 60.0166L63.5164 60.019C63.5311 59.4672 63.5279 58.9664 63.5164 58.4144C63.2266 58.3159 62.9069 58.2625 62.6144 58.1755C58.8503 57.0567 61.1442 51.7727 63.1906 50.1032C63.721 49.6705 64.2914 49.2809 64.8331 48.844ZM68.1347 43.0954C66.5727 43.3097 65.4773 44.7456 65.6836 46.3086C65.8896 47.8718 67.3199 48.9747 68.884 48.7767C70.4596 48.5772 71.5724 47.1342 71.3648 45.5596C71.1571 43.9849 69.7082 42.8796 68.1347 43.0954Z" fill="black"/>
<path d="M43.9658 59.3964C39.7409 55.8444 41.898 49.3154 47.2495 48.5311C53.0599 47.846 56.7149 54.845 52.0585 59.3964C56.139 60.7256 58.9034 64.3426 59.6322 68.5513C59.7668 69.4441 59.6342 70.3436 59.0747 71.0489C57.0458 73.6066 53.9022 70.1671 53.9249 74.3634C53.9466 78.4083 53.5857 82.0882 48.7124 82.8232C46.513 82.9747 44.8071 82.3648 43.3472 80.6568C41.7235 78.7571 42.204 76.7416 42.1373 74.4678C42.0471 71.3896 41.8628 72.3296 39.0934 72.1694C32.9732 71.8158 37.6577 60.8658 43.9658 59.3964ZM47.526 50.3872C45.1369 50.6486 43.4138 52.8001 43.6808 55.1887C43.9478 57.5774 46.1035 59.2955 48.4915 59.0229C50.8714 58.751 52.5825 56.6041 52.3163 54.2234C52.0502 51.8428 49.9075 50.1268 47.526 50.3872ZM46.0262 60.8467C43.8998 61.0025 41.7649 62.2301 40.3919 63.8413C39.6507 64.7111 37.1376 69.0479 38.3925 70.0436C39.5972 70.9991 43.9915 68.5813 43.9733 73.9634L43.965 76.0689C43.962 76.8766 43.9244 77.7018 44.215 78.4694C45.0458 80.6634 47.5934 81.5249 49.6846 80.6261C54.3859 78.0937 49.9649 72.7108 53.7593 70.6505C55.1123 69.9157 57.546 70.7144 57.8072 69.5281C58.0358 68.4899 56.9864 66.1691 56.4662 65.3013C55.2278 63.2351 53.3757 61.6044 51.0231 60.9892C50.4655 60.8435 46.7076 60.7417 46.0262 60.8467Z" fill="black"/>
</svg>
