<svg width="96" height="96" viewBox="0 0 96 96" fill="none" xmlns="http://www.w3.org/2000/svg">
<path d="M32.6291 22.2115C32.2807 15.6633 42.1145 14.3528 46.8761 14.0198C51.8707 13.8044 63.8221 15.2689 63.2474 22.2115C64.7533 22.2121 66.2602 22.2143 67.7653 22.208C69.7634 22.2395 70.5314 21.5808 70.4804 24.2258C70.3505 30.971 66.1012 35.8021 60.3266 38.6765C57.7769 44.5709 55.8605 48.0792 51.734 53.2994C51.8915 54.0376 52.106 54.7803 52.2854 55.5162L53.7404 61.4172C54.0082 62.5045 54.3785 63.9136 54.5555 65.002C56.7314 64.7965 56.7836 65.66 57.5204 67.5023C57.8026 68.2079 58.1339 68.9422 58.3591 69.653C60.4693 69.6445 62.4303 70.588 62.4451 72.9657C62.4614 75.6059 62.4579 78.2699 62.4436 80.9101C62.4373 82.112 60.8298 81.853 60.026 81.8528L49.0672 81.8506L36.2538 81.8523C33.5694 81.8521 33.4944 82.0058 33.5075 79.2621L33.5008 73.942C33.4876 70.4781 34.3064 69.8075 37.922 69.653C38.6133 67.4234 38.5994 65.0562 41.5481 65.002C42.1284 61.8535 43.0432 58.5216 43.8136 55.399C43.9891 54.6876 44.1446 53.9967 44.3756 53.2994C41.5501 50.4278 38.1007 44.3907 36.554 40.7061C36.2698 40.0289 36.0003 39.3428 35.6941 38.6765C29.9248 35.929 26.9285 32.4925 25.6929 25.9741C24.9639 22.129 25.1947 22.2096 28.4664 22.2093L32.6291 22.2115ZM46.8761 16.0347C43.115 16.3328 38.1196 16.8817 35.3257 19.7945C34.1673 21.002 34.7173 24.5971 34.8538 26.1627C35.6803 35.6393 38.9887 42.5868 44.3756 50.2036C45.3264 48.4079 46.8191 47.3196 48.9224 47.8304C50.3849 48.2583 50.9666 48.9535 51.734 50.2036L51.7704 50.1299C52.0726 49.5271 53.0148 48.2725 53.4341 47.6435C58.0991 40.6437 61.1608 31.9726 61.2729 23.5242C61.2826 22.792 61.3518 21.43 61.1491 20.7841C59.8888 16.7639 50.1656 15.9097 46.8761 16.0347ZM63.2474 24.143C63.1957 28.7393 62.1146 31.6943 61.271 35.927C62.129 35.4267 63.6146 34.2858 64.2599 33.5568C66.9024 31.277 68.4061 27.5969 68.5273 24.143C66.9359 24.1131 64.8144 24.0239 63.2474 24.143ZM27.5776 24.143C27.2364 24.3128 27.5488 25.2035 27.6151 25.5132C28.6278 30.2485 30.4205 33.4782 34.6466 35.927L34.7216 35.8741C34.7062 35.5043 34.4039 34.8231 34.3066 34.4472C33.5201 31.4088 32.7146 27.3327 32.7712 24.143C31.3738 24.2577 28.9426 24.2127 27.5776 24.143ZM47.7238 49.7425C45.0971 50.3733 46.5071 52.6025 46.2815 53.6654C46.076 54.6333 45.7781 55.7873 45.5394 56.768L44.2364 62.1867C44.0285 63.0501 43.7373 64.1384 43.5946 65.002H48.4449H52.5018C51.7616 61.1738 50.5625 57.2605 49.7429 53.4203C49.5802 52.6581 50.9381 49.6251 47.7238 49.7425ZM41.3478 66.9938C40.2886 67.0947 40.2442 68.6465 39.974 69.653H54.9106H56.2865C55.943 68.7629 55.5794 67.8781 55.2204 66.9938H41.3478ZM36.2816 71.6691C35.9793 71.8135 35.6624 72.0093 35.5546 72.3481C35.3861 72.8774 35.4881 78.8369 35.4864 79.8738H59.5661H60.4762L60.4792 75.3561C60.4794 70.8867 60.0288 71.6663 55.9694 71.668H40.8256C39.4094 71.6678 37.6606 71.6166 36.2816 71.6691Z" fill="black"/>
<path d="M47.2624 20.3174C47.4209 20.1998 47.5486 20.1498 47.7271 20.0673C48.6636 20.0166 48.7576 20.3676 49.0521 21.1739C49.5949 22.6596 50.1541 24.1383 50.6262 25.6484C51.3265 25.6471 58.5593 25.0026 56.452 27.3376C56.0639 27.7677 55.4069 28.2059 54.9269 28.571L52.2297 30.6222C52.4101 31.2895 55.3442 38.2971 52.4202 36.8195C51.8714 36.5421 51.3766 36.1542 50.8688 35.7908L48.2132 33.866L48.0797 33.7874C47.05 33.905 44.1424 37.1774 42.7131 36.8883C41.2354 36.7413 43.5259 31.5181 43.7817 30.6222C42.9027 29.9292 39.3871 27.7036 39.3122 26.6967C39.1615 25.3351 41.3069 25.6433 42.1073 25.645L45.3904 25.6484C45.6612 24.5804 46.7731 21.2721 47.2624 20.3174ZM48.0934 23.8553C46.2961 27.6462 48.1161 27.7458 42.9469 27.5352C47.0877 30.7998 46.0064 28.9293 44.8979 33.5532C45.7752 32.9956 47.1977 31.7358 48.0934 31.5923C48.9267 31.7271 50.3322 33.023 51.0597 33.5532C49.8406 29.0652 49.1712 30.4373 53.1049 27.5352C52.4404 27.5365 49.6478 27.6766 49.2526 27.2776C48.9976 27.0203 48.1369 24.2588 48.0934 23.8553Z" fill="black"/>
</svg>
