<svg width="96" height="96" viewBox="0 0 96 96" fill="none" xmlns="http://www.w3.org/2000/svg">
<path d="M47.0712 22.7797C41.9378 21.0894 42.8125 14.71 47.648 14.1269C52.5518 13.5293 54.5943 21.1959 48.8975 22.7797C48.8971 24.0333 49.3608 28.8566 48.4823 29.4226C46.6649 29.8085 47.0699 27.5081 47.0693 26.3505L47.0712 22.7797ZM47.8478 15.9867C46.4648 16.068 45.4073 17.2513 45.4816 18.6346C45.5556 20.018 46.7337 21.0813 48.1173 21.0142C49.511 20.9467 50.5838 19.7583 50.5092 18.3651C50.4344 16.9717 49.2408 15.9049 47.8478 15.9867Z" fill="black"/>
<path d="M29.1476 30.0356C22.1478 33.8881 19.5858 22.3241 26.1776 22.2327C26.8047 21.9622 27.8707 22.2539 28.4731 22.5284C30.9534 23.6583 31.5455 26.3324 30.4051 28.6893C31.7821 30.1904 34.5198 32.4843 35.5387 33.9693C35.9922 34.5867 35.4207 35.4048 34.7296 35.3776C34.2569 35.3591 33.4979 34.4058 33.1666 34.0604C31.8821 32.8302 30.3564 31.3177 29.1476 30.0356ZM26.4596 23.9407C25.559 24.0056 24.7631 24.5501 24.3762 25.3657C23.9894 26.1815 24.0716 27.1422 24.5911 27.8806C25.1109 28.6188 25.9876 29.0204 26.8859 28.9316C28.2496 28.7967 29.2518 27.5909 29.1352 26.2257C29.0184 24.8604 27.8262 23.8422 26.4596 23.9407Z" fill="black"/>
<path d="M65.5986 28.6876C64.0617 25.8703 65.6684 22.6978 68.8088 22.2311C70.9373 22.0327 73.0396 23.3154 73.5117 25.4128C74.4331 29.5051 70.3317 32.1436 66.8412 30.0339C66.0121 30.7381 64.1078 32.5818 63.4722 33.4312C62.9071 33.9251 62.4094 34.5281 61.8792 35.0639C60.9066 36.0464 59.7016 34.6805 60.5052 33.8122C61.6217 32.6054 64.2968 29.6062 65.5986 28.6876ZM69.2142 24.0219C67.8505 24.0916 66.7982 25.2483 66.8575 26.6126C66.9169 27.9768 68.0656 29.0379 69.4302 28.9889C70.8098 28.9396 71.8849 27.7756 71.8249 26.3966C71.7649 25.0175 70.5929 23.9512 69.2142 24.0219Z" fill="black"/>
<path d="M48.688 68.5794L45.64 68.5837C44.3827 68.594 43.1212 68.7862 42.0668 67.9732C39.9262 66.3227 41.5544 61.3374 37.6514 57.8921C28.154 49.5079 32.4027 34.4074 44.4659 31.4842C45.3867 31.2609 46.3094 31.1814 47.2763 31.0811C47.3478 31.0749 47.4297 31.0785 47.5021 31.0766C61.0443 30.7037 68.605 46.9993 59.5533 56.8024C59.1398 57.2501 58.6557 57.623 58.2284 58.0565C54.4135 61.932 56.215 65.78 54.3676 67.6123C53.2983 68.6726 52.2563 68.5822 50.8658 68.5822L48.688 68.5794ZM47.2763 32.9565C43.1393 33.4517 39.7846 34.9022 37.1122 38.3002C33.2257 43.242 33.4328 50.5865 37.6072 55.2755C40.201 58.1895 42.2065 59.5187 42.5358 64.1287C42.7797 67.545 43.6068 66.7115 47.0693 66.708V52.6455C46.5642 52.6455 46.1375 52.6384 45.6292 52.5874C40.487 52.0927 40.3874 45.0274 44.6416 45.0849C46.3613 45.1082 47.8058 46.6532 48.1379 48.2726C48.2427 47.9602 48.3397 47.6443 48.4805 47.3469C50.9868 41.7502 55.973 45.3077 54.0638 48.8272C53.0371 50.72 50.9328 51.8758 48.8956 52.3466C48.947 53.6972 48.895 55.3805 48.8945 56.7607L48.8956 66.708C49.9992 66.7078 52.3795 66.9851 53.105 66.3011C53.696 65.7437 53.4781 64.886 53.5293 64.1443C53.8193 59.9531 55.5929 58.2347 58.165 55.5212C66.3102 46.9288 59.2085 32.1945 47.2763 32.9565ZM51.7803 46.2725C50.3737 46.6674 49.8678 48.9478 49.5082 50.2091C49.7108 50.124 49.9445 50.0355 50.1318 49.9258C51.1057 49.3545 54.2928 46.6811 51.7803 46.2725ZM44.2951 46.9301C42.4972 47.733 43.6077 50.597 46.157 50.762H46.8805C46.5751 49.3436 46.166 46.8289 44.2951 46.9301Z" fill="black"/>
<path d="M21.6724 47.5489C20.7611 50.6183 17.1772 51.9791 14.6522 50.0153C11.5868 47.631 12.8866 42.7465 16.811 42.2485C19.3324 42.0842 21.0347 43.3624 21.6724 45.7742L27.2557 45.772C28.181 45.772 29.1017 45.7564 30.0268 45.8003C31.0747 45.85 31.1317 47.4251 30.1234 47.515C29.4118 47.5783 28.6661 47.5521 27.9487 47.5521L23.7596 47.5489H21.6724ZM16.9183 44.0423C15.5439 44.2639 14.607 45.5546 14.8221 46.93C15.0371 48.3055 16.3232 49.2484 17.6996 49.0399C19.0854 48.8301 20.0362 47.5333 19.8199 46.1486C19.6033 44.7638 18.302 43.8191 16.9183 44.0423Z" fill="black"/>
<path d="M74.4278 45.5439C74.9029 43.7642 76.1395 42.5923 77.9593 42.2524C80.4745 41.9745 82.6487 43.4357 83.0095 46.0074C83.8298 51.8548 74.9719 52.5636 74.4278 47.3456H73.8079C71.1368 47.3453 68.3882 47.3805 65.7231 47.3456C64.945 46.7858 64.9221 45.6253 66.018 45.5661C66.918 45.5173 67.8343 45.5406 68.7379 45.5413L74.4278 45.5439ZM78.4918 44.0469C77.5864 44.1122 76.7861 44.6593 76.3967 45.4794C76.0075 46.2996 76.0896 47.2656 76.6114 48.0083C77.1334 48.7511 78.0145 49.1556 78.918 49.0673C80.2901 48.933 81.2997 47.7206 81.183 46.3468C81.0664 44.973 79.8671 43.9479 78.4918 44.0469Z" fill="black"/>
<path d="M65.595 64.6802L62.6755 61.6791C62.1012 61.0994 58.5248 58.1196 60.972 57.8055C61.6999 57.7311 65.9727 62.5069 66.8376 63.2382C72.016 60.1797 75.9966 66.8631 72.2128 70.0221C69.4637 72.8369 63.2721 69.8522 65.595 64.6802ZM69.201 64.3193C67.8332 64.4314 66.8177 65.6348 66.9372 67.0019C67.0564 68.3691 68.265 69.3782 69.6315 69.2519C70.9879 69.1262 71.988 67.9285 71.8697 66.5716C71.7512 65.2144 70.5587 64.2081 69.201 64.3193Z" fill="black"/>
<path d="M29.314 63.2329C30.0237 62.4165 34.0449 58.1696 34.8241 57.8002C37.2721 57.6969 35.0829 60.0094 34.4817 60.6077L32.0639 63.0285C31.6034 63.497 30.9955 64.0935 30.6054 64.6042L30.5519 64.6749C32.8338 68.1562 28.2858 73.173 24.0659 70.304C19.285 66.7843 24.7289 59.7199 29.314 63.2329ZM26.5098 64.1852C25.0915 64.2697 24.0123 65.4907 24.1025 66.9086C24.1929 68.3265 25.4184 69.4009 26.8357 69.3047C28.2451 69.2092 29.3118 67.9924 29.2222 66.5825C29.1324 65.1729 27.9198 64.1012 26.5098 64.1852Z" fill="black"/>
<path d="M51.5434 71.8952C49.4604 71.9165 46.2919 71.9214 44.1126 71.864C43.4529 71.8466 42.9709 70.6511 44.0511 70.0217C46.1902 69.8972 48.5578 70.1336 50.6867 70.0232C52.4629 69.9309 52.6245 71.4116 51.5434 71.8952Z" fill="black"/>
<path d="M54.9121 76.0005C53.8056 82.879 44.1856 84.0257 41.6613 77.5459C41.2508 76.4921 40.4088 73.6954 41.9213 73.1803C42.4743 73.1678 42.6773 73.3393 43.0088 73.7648C43.174 83.2549 53.4256 80.6441 53.1049 74.7424C53.0157 73.1008 55.3229 72.3636 54.9121 76.0005Z" fill="black"/>
<path d="M50.5374 75.1905C49.8329 75.2392 45.6104 75.2653 45.1539 75.0872C44.2887 74.75 44.6339 73.6205 45.4394 73.3513L48.7794 73.346C49.1306 73.3458 50.3894 73.3001 50.6296 73.4049C51.5411 73.8024 51.3884 74.8115 50.5374 75.1905Z" fill="black"/>
</svg>
