<svg width="171" height="50" viewBox="0 0 171 50" fill="none" xmlns="http://www.w3.org/2000/svg">
<path d="M18.4831 20.3125V10.9375L35 20.3125V39.0625L27.1348 34.7656V29.2969L15.5337 35.9375L11.4045 34.375V29.6875L22.809 22.6562L18.4831 20.3125Z" fill="white"/>
<path d="M33.0337 40.625L24.7753 35.9375L16.5169 41.0156L7.86517 35.9375V26.1719L16.5169 21.0938V12.1094L7.86517 17.1875V5.07812L0 0V40.2344L16.5169 50L33.0337 40.625Z" fill="white"/>
<path d="M50.1981 17H46.0145C45.9537 17 45.9233 16.962 45.9233 16.886L45.9689 0.847124C45.9689 0.786327 45.9993 0.755929 46.0601 0.755929H50.5515C51.4254 0.755929 52.2196 0.968717 52.9339 1.39429C53.6331 1.81987 54.1841 2.38604 54.5869 3.0928C54.9896 3.79196 55.191 4.55191 55.191 5.37266C55.191 6.04143 55.039 6.66459 54.735 7.24216C54.4311 7.81972 54.0701 8.2871 53.6521 8.64428C54.1005 9.09265 54.4501 9.61322 54.7008 10.206C54.9516 10.7988 55.077 11.4219 55.077 12.0755C55.077 12.9798 54.8604 13.8044 54.4273 14.5491C53.9865 15.2939 53.3975 15.8905 52.6604 16.3388C51.9232 16.7796 51.1025 17 50.1981 17ZM50.5515 3.52597H48.7732V7.19656H50.5515C51.0911 7.19656 51.528 7.00657 51.8624 6.62659C52.1968 6.23902 52.364 5.82104 52.364 5.37266C52.364 4.87869 52.1854 4.44932 51.8282 4.08454C51.471 3.71216 51.0455 3.52597 50.5515 3.52597ZM50.1981 10.0236H48.7732L48.7504 14.1502H50.1981C50.7605 14.1502 51.243 13.945 51.6458 13.5346C52.0486 13.1242 52.25 12.6378 52.25 12.0755C52.25 11.5131 52.0486 11.0305 51.6458 10.6278C51.243 10.225 50.7605 10.0236 50.1981 10.0236ZM61.7507 17.228C60.9299 17.228 60.1699 17.0152 59.4708 16.5896C58.7716 16.164 58.2131 15.5941 57.7951 14.8797C57.3847 14.1578 57.1795 13.3712 57.1795 12.5201L57.2251 0.847124C57.2251 0.786327 57.2555 0.755929 57.3163 0.755929H59.9382C59.999 0.755929 60.0294 0.786327 60.0294 0.847124V12.5201C60.0294 13.0444 60.1965 13.4928 60.5309 13.8652C60.8653 14.23 61.2719 14.4123 61.7507 14.4123C62.2522 14.4123 62.6702 14.23 63.0046 13.8652C63.339 13.4928 63.5062 13.0444 63.5062 12.5201V0.847124C63.5062 0.786327 63.5366 0.755929 63.5974 0.755929H66.2192C66.28 0.755929 66.3104 0.786327 66.3104 0.847124L66.356 12.5201C66.356 13.3788 66.1508 14.1692 65.7404 14.8911C65.3225 15.6055 64.7677 16.1754 64.0761 16.601C63.3846 17.019 62.6094 17.228 61.7507 17.228ZM71.6275 17H68.9829C68.9221 17 68.8917 16.962 68.8917 16.886L68.9373 0.847124C68.9373 0.786327 68.9677 0.755929 69.0285 0.755929H73.7478C74.5913 0.755929 75.3665 0.961117 76.0733 1.37149C76.78 1.78187 77.3424 2.33284 77.7604 3.0244C78.1859 3.71596 78.3987 4.49871 78.3987 5.37266C78.3987 5.94263 78.3113 6.4594 78.1365 6.92298C77.9617 7.38655 77.7566 7.77793 77.521 8.09711C77.293 8.41629 77.084 8.65188 76.894 8.80387C77.7376 9.73862 78.1593 10.8368 78.1593 12.0983L78.1821 16.886C78.1821 16.962 78.1441 17 78.0681 17H75.4235C75.3627 17 75.3323 16.9772 75.3323 16.9316V12.0983C75.3323 11.5359 75.1347 11.0495 74.7395 10.6392C74.3444 10.2288 73.858 10.0236 73.2804 10.0236H71.7415L71.7187 16.886C71.7187 16.962 71.6883 17 71.6275 17ZM73.7478 3.54877H71.7415V7.21936H73.7478C74.2266 7.21936 74.6521 7.04077 75.0245 6.68359C75.4045 6.32641 75.5945 5.88944 75.5945 5.37266C75.5945 4.87869 75.4121 4.45312 75.0473 4.09594C74.6825 3.73116 74.2494 3.54877 73.7478 3.54877ZM83.5904 17H80.9458C80.885 17 80.8546 16.962 80.8546 16.886L80.8774 0.847124C80.8774 0.786327 80.9154 0.755929 80.9914 0.755929H83.5904C83.6664 0.755929 83.7044 0.786327 83.7044 0.847124L83.6816 7.19656H87.1812V0.847124C87.1812 0.786327 87.2116 0.755929 87.2724 0.755929H89.8715C89.9475 0.755929 89.9855 0.786327 89.9855 0.847124L90.0311 16.886C90.0311 16.962 89.9931 17 89.9171 17H87.2952C87.2192 17 87.1812 16.962 87.1812 16.886V10.0236H83.6816V16.886C83.6816 16.962 83.6512 17 83.5904 17ZM91.8486 16.886L94.744 0.847124C94.7592 0.786327 94.7972 0.755929 94.858 0.755929H98.2436C98.3044 0.755929 98.3424 0.786327 98.3576 0.847124L101.139 16.886C101.147 16.962 101.116 17 101.048 17H98.4602C98.3842 17 98.3424 16.962 98.3348 16.886L98.084 15.1761H94.9036L94.6528 16.886C94.6452 16.962 94.6072 17 94.5388 17H91.9398C91.879 17 91.8486 16.962 91.8486 16.886ZM96.4197 6.12502L95.371 12.6796H97.6167L96.6591 6.12502L96.5223 5.25867L96.4197 6.12502ZM105.841 17H103.504C103.382 17 103.321 16.9468 103.321 16.8404L103.299 0.938318C103.299 0.816725 103.359 0.755929 103.481 0.755929H105.59L109.534 9.9552L109.42 0.938318C109.42 0.816725 109.488 0.755929 109.625 0.755929H111.939C112.03 0.755929 112.076 0.816725 112.076 0.938318L112.099 16.8632C112.099 16.9544 112.061 17 111.985 17H109.933L105.886 8.40489L106.057 16.8176C106.057 16.9392 105.985 17 105.841 17ZM117.587 17H114.942C114.866 17 114.828 16.962 114.828 16.886L114.851 0.847124C114.851 0.786327 114.882 0.755929 114.942 0.755929H117.564C117.625 0.755929 117.655 0.786327 117.655 0.847124L117.678 16.886C117.678 16.962 117.648 17 117.587 17ZM50.9049 37H48.2716C48.2032 37 48.169 36.962 48.169 36.886V23.5716H45.1368C45.0608 23.5716 45.0228 23.5336 45.0228 23.4576L45.0456 20.8471C45.0456 20.7863 45.076 20.7559 45.1368 20.7559H54.0055C54.0891 20.7559 54.1309 20.7863 54.1309 20.8471V23.4576C54.1309 23.5336 54.1005 23.5716 54.0397 23.5716H50.9733L50.9961 36.886C50.9961 36.962 50.9657 37 50.9049 37ZM63.6088 37H56.0624C56.0016 37 55.9712 36.962 55.9712 36.886L55.994 20.8471C55.994 20.7863 56.0244 20.7559 56.0852 20.7559H63.586C63.6467 20.7559 63.6771 20.7939 63.6771 20.8699V23.4804C63.6771 23.5412 63.6467 23.5716 63.586 23.5716H58.7982V27.2194H63.586C63.6467 27.2194 63.6771 27.2498 63.6771 27.3106L63.6999 29.9552C63.6999 30.016 63.6695 30.0464 63.6088 30.0464H58.7982V34.1274H63.6088C63.6695 34.1274 63.6999 34.1654 63.6999 34.2414V36.9088C63.6999 36.9696 63.6695 37 63.6088 37ZM70.7726 37.228C69.929 37.228 69.1577 37.0152 68.4585 36.5896C67.7669 36.164 67.216 35.5941 66.8056 34.8797C66.4028 34.1578 66.2014 33.356 66.2014 32.4745L66.2242 25.1903C66.2242 24.3239 66.4218 23.5412 66.817 22.842C67.2122 22.1352 67.7555 21.5691 68.4471 21.1435C69.1463 20.7103 69.9214 20.4937 70.7726 20.4937C71.6389 20.4937 72.4103 20.7027 73.0866 21.1207C73.7706 21.5387 74.314 22.1049 74.7167 22.8192C75.1271 23.526 75.3323 24.3163 75.3323 25.1903V26.2618C75.3323 26.3226 75.3019 26.353 75.2411 26.353H72.6193C72.5585 26.353 72.5281 26.3226 72.5281 26.2618V25.1903C72.5281 24.6735 72.3609 24.2289 72.0265 23.8566C71.6921 23.4842 71.2741 23.298 70.7726 23.298C70.2178 23.298 69.7922 23.488 69.4958 23.868C69.1994 24.2479 69.0513 24.6887 69.0513 25.1903V32.4745C69.0513 33.0444 69.2184 33.5118 69.5528 33.8766C69.8872 34.2338 70.2938 34.4123 70.7726 34.4123C71.2741 34.4123 71.6921 34.2148 72.0265 33.8196C72.3609 33.4168 72.5281 32.9684 72.5281 32.4745V31.3915C72.5281 31.3307 72.5585 31.3003 72.6193 31.3003H75.2639C75.3247 31.3003 75.3551 31.3307 75.3551 31.3915V32.4745C75.3551 33.3484 75.1499 34.1464 74.7395 34.8683C74.3216 35.5827 73.7706 36.1564 73.0866 36.5896C72.4027 37.0152 71.6313 37.228 70.7726 37.228ZM80.4898 37H77.8452C77.7844 37 77.754 36.962 77.754 36.886L77.7768 20.8471C77.7768 20.7863 77.8148 20.7559 77.8908 20.7559H80.4898C80.5658 20.7559 80.6038 20.7863 80.6038 20.8471L80.581 27.1966H84.0806V20.8471C84.0806 20.7863 84.111 20.7559 84.1718 20.7559H86.7709C86.8469 20.7559 86.8849 20.7863 86.8849 20.8471L86.9305 36.886C86.9305 36.962 86.8925 37 86.8165 37H84.1946C84.1186 37 84.0806 36.962 84.0806 36.886V30.0236H80.581V36.886C80.581 36.962 80.5506 37 80.4898 37ZM92.0766 37H89.7397C89.6181 37 89.5573 36.9468 89.5573 36.8404L89.5345 20.9383C89.5345 20.8167 89.5953 20.7559 89.7169 20.7559H91.8258L95.77 29.9552L95.656 20.9383C95.656 20.8167 95.7244 20.7559 95.8612 20.7559H98.1752C98.2664 20.7559 98.312 20.8167 98.312 20.9383L98.3348 36.8632C98.3348 36.9544 98.2968 37 98.2208 37H96.1689L92.1222 28.4049L92.2932 36.8176C92.2932 36.9392 92.221 37 92.0766 37ZM105.385 37.228C104.556 37.228 103.793 37.0152 103.093 36.5896C102.402 36.164 101.843 35.5979 101.418 34.8911C101 34.1768 100.791 33.394 100.791 32.5429L100.813 25.1447C100.813 24.2783 101.022 23.4994 101.44 22.8078C101.851 22.1087 102.406 21.5501 103.105 21.1321C103.804 20.7065 104.564 20.4937 105.385 20.4937C106.236 20.4937 107 20.7027 107.676 21.1207C108.36 21.5387 108.907 22.1011 109.317 22.8078C109.735 23.507 109.944 24.2859 109.944 25.1447L109.967 32.5429C109.967 33.394 109.762 34.173 109.352 34.8797C108.934 35.5941 108.379 36.164 107.687 36.5896C106.996 37.0152 106.228 37.228 105.385 37.228ZM105.385 34.4123C105.856 34.4123 106.266 34.2224 106.616 33.8424C106.965 33.4548 107.14 33.0216 107.14 32.5429L107.117 25.1447C107.117 24.6279 106.954 24.1909 106.627 23.8338C106.3 23.4766 105.886 23.298 105.385 23.298C104.906 23.298 104.495 23.4728 104.153 23.8224C103.812 24.1719 103.641 24.6127 103.641 25.1447V32.5429C103.641 33.052 103.812 33.4928 104.153 33.8652C104.495 34.23 104.906 34.4123 105.385 34.4123ZM120.072 37H112.526C112.465 37 112.434 36.962 112.434 36.886L112.457 20.8699C112.457 20.7939 112.495 20.7559 112.571 20.7559H115.17C115.246 20.7559 115.284 20.7939 115.284 20.8699L115.261 34.1274H120.072C120.148 34.1274 120.186 34.1654 120.186 34.2414V36.886C120.186 36.962 120.148 37 120.072 37ZM126.734 37.228C125.906 37.228 125.142 37.0152 124.443 36.5896C123.751 36.164 123.193 35.5979 122.767 34.8911C122.349 34.1768 122.14 33.394 122.14 32.5429L122.163 25.1447C122.163 24.2783 122.372 23.4994 122.79 22.8078C123.2 22.1087 123.755 21.5501 124.454 21.1321C125.154 20.7065 125.913 20.4937 126.734 20.4937C127.585 20.4937 128.349 20.7027 129.026 21.1207C129.709 21.5387 130.257 22.1011 130.667 22.8078C131.085 23.507 131.294 24.2859 131.294 25.1447L131.317 32.5429C131.317 33.394 131.112 34.173 130.701 34.8797C130.283 35.5941 129.728 36.164 129.037 36.5896C128.345 37.0152 127.578 37.228 126.734 37.228ZM126.734 34.4123C127.205 34.4123 127.616 34.2224 127.965 33.8424C128.315 33.4548 128.49 33.0216 128.49 32.5429L128.467 25.1447C128.467 24.6279 128.304 24.1909 127.977 23.8338C127.65 23.4766 127.236 23.298 126.734 23.298C126.255 23.298 125.845 23.4728 125.503 23.8224C125.161 24.1719 124.99 24.6127 124.99 25.1447V32.5429C124.99 33.052 125.161 33.4928 125.503 33.8652C125.845 34.23 126.255 34.4123 126.734 34.4123ZM138.059 37.228C137.215 37.228 136.455 37.019 135.779 36.601C135.095 36.183 134.544 35.6207 134.126 34.9139C133.716 34.2072 133.51 33.4168 133.51 32.5429V25.1447C133.51 24.2935 133.719 23.5184 134.137 22.8192C134.548 22.1125 135.099 21.5501 135.79 21.1321C136.482 20.7065 137.238 20.4937 138.059 20.4937C138.918 20.4937 139.693 20.6989 140.384 21.1093C141.076 21.5273 141.623 22.0859 142.026 22.785C142.436 23.4842 142.641 24.2707 142.641 25.1447V26.2162C142.641 26.277 142.603 26.3074 142.527 26.3074H139.905C139.845 26.3074 139.814 26.277 139.814 26.2162V25.3271C139.814 24.7343 139.647 24.2441 139.313 23.8566C138.978 23.469 138.56 23.2752 138.059 23.2752C137.61 23.2752 137.211 23.4614 136.862 23.8338C136.512 24.2061 136.338 24.6431 136.338 25.1447V32.5429C136.338 33.052 136.508 33.4928 136.85 33.8652C137.192 34.23 137.595 34.4123 138.059 34.4123C138.56 34.4123 138.978 34.2338 139.313 33.8766C139.647 33.5118 139.814 33.0672 139.814 32.5429V31.3915H138.184C138.101 31.3915 138.059 31.3535 138.059 31.2775V28.6671C138.059 28.5911 138.101 28.5531 138.184 28.5531H142.55C142.611 28.5531 142.641 28.5911 142.641 28.6671V32.5429C142.641 33.4168 142.436 34.2072 142.026 34.9139C141.608 35.6207 141.057 36.183 140.373 36.601C139.689 37.019 138.918 37.228 138.059 37.228ZM147.753 37H145.109C145.033 37 144.995 36.962 144.995 36.886L145.017 20.8471C145.017 20.7863 145.048 20.7559 145.109 20.7559H147.73C147.791 20.7559 147.822 20.7863 147.822 20.8471L147.844 36.886C147.844 36.962 147.814 37 147.753 37ZM158.234 37H150.688C150.627 37 150.597 36.962 150.597 36.886L150.62 20.8471C150.62 20.7863 150.65 20.7559 150.711 20.7559H158.211C158.272 20.7559 158.303 20.7939 158.303 20.8699V23.4804C158.303 23.5412 158.272 23.5716 158.211 23.5716H153.424V27.2194H158.211C158.272 27.2194 158.303 27.2498 158.303 27.3106L158.325 29.9552C158.325 30.016 158.295 30.0464 158.234 30.0464H153.424V34.1274H158.234C158.295 34.1274 158.325 34.1654 158.325 34.2414V36.9088C158.325 36.9696 158.295 37 158.234 37ZM165.068 37.228C164.239 37.228 163.475 37.0152 162.776 36.5896C162.085 36.164 161.53 35.5979 161.112 34.8911C160.702 34.1768 160.496 33.394 160.496 32.5429V31.4713C160.496 31.3877 160.534 31.3459 160.61 31.3459H163.232C163.293 31.3459 163.323 31.3877 163.323 31.4713V32.5429C163.323 33.052 163.494 33.4928 163.836 33.8652C164.178 34.23 164.589 34.4123 165.068 34.4123C165.554 34.4123 165.968 34.2262 166.31 33.8538C166.652 33.4738 166.823 33.0368 166.823 32.5429C166.823 31.9729 166.451 31.4751 165.706 31.0495C165.584 30.9735 165.425 30.8823 165.227 30.776C165.037 30.662 164.809 30.5328 164.543 30.3884C164.277 30.244 164.019 30.1034 163.768 29.9666C163.517 29.8222 163.274 29.6854 163.038 29.5562C162.187 29.0547 161.553 28.4277 161.135 27.6753C160.724 26.9154 160.519 26.0642 160.519 25.1219C160.519 24.2555 160.732 23.4728 161.158 22.7736C161.583 22.0821 162.138 21.5349 162.822 21.1321C163.513 20.7217 164.262 20.5165 165.068 20.5165C165.896 20.5165 166.656 20.7217 167.347 21.1321C168.039 21.5501 168.59 22.1049 169 22.7964C169.418 23.488 169.627 24.2631 169.627 25.1219V27.037C169.627 27.0978 169.597 27.1282 169.536 27.1282H166.914C166.853 27.1282 166.823 27.0978 166.823 27.037L166.8 25.1219C166.8 24.5747 166.629 24.1301 166.287 23.7882C165.945 23.4462 165.539 23.2752 165.068 23.2752C164.589 23.2752 164.178 23.4576 163.836 23.8224C163.494 24.1871 163.323 24.6203 163.323 25.1219C163.323 25.631 163.43 26.0566 163.643 26.3986C163.863 26.7406 164.262 27.0674 164.84 27.379C164.9 27.4093 165.041 27.4853 165.261 27.6069C165.482 27.7285 165.725 27.8653 165.991 28.0173C166.264 28.1617 166.511 28.2947 166.732 28.4163C166.952 28.5303 167.085 28.5987 167.131 28.6215C167.906 29.0547 168.518 29.5866 168.966 30.2174C169.422 30.8482 169.65 31.6233 169.65 32.5429C169.65 33.432 169.445 34.23 169.034 34.9367C168.617 35.6435 168.062 36.202 167.37 36.6124C166.679 37.0228 165.911 37.228 165.068 37.228Z" fill="white"/>
<path d="M47.3027 49.0264C46.9277 49.0264 46.5908 48.9531 46.292 48.8066C45.9932 48.6543 45.75 48.4082 45.5625 48.0684C45.4863 47.9336 45.4219 47.793 45.3691 47.6465C45.3223 47.4941 45.2988 47.3389 45.2988 47.1807C45.2988 46.8818 45.4453 46.7324 45.7383 46.7324C45.873 46.7324 45.9727 46.7705 46.0371 46.8467C46.1016 46.917 46.1514 47.0107 46.1865 47.1279C46.2217 47.2451 46.2568 47.3711 46.292 47.5059C46.3271 47.6348 46.3799 47.7578 46.4502 47.875C46.5205 47.9922 46.623 48.0889 46.7578 48.165C46.8984 48.2354 47.0859 48.2705 47.3203 48.2705C47.6426 48.2705 47.8945 48.1592 48.0762 47.9365C48.2578 47.708 48.3486 47.4414 48.3486 47.1367C48.3486 46.8906 48.293 46.6855 48.1816 46.5215C48.0762 46.3574 47.9355 46.2197 47.7598 46.1084C47.584 45.9912 47.3906 45.8857 47.1797 45.792C46.9688 45.6982 46.7549 45.6016 46.5381 45.502C46.3271 45.3965 46.1338 45.2764 45.958 45.1416C45.7822 45.001 45.6387 44.8281 45.5273 44.623C45.4219 44.4121 45.3691 44.1543 45.3691 43.8496C45.3691 43.4922 45.4482 43.1875 45.6064 42.9355C45.7646 42.6777 45.9785 42.4814 46.248 42.3467C46.5234 42.2061 46.8311 42.1357 47.1709 42.1357C47.4756 42.1357 47.7715 42.2002 48.0586 42.3291C48.3457 42.4521 48.583 42.6338 48.7705 42.874C48.9639 43.1084 49.0605 43.3926 49.0605 43.7266C49.0605 44.0078 48.9199 44.1484 48.6387 44.1484C48.498 44.1484 48.3926 44.1074 48.3223 44.0254C48.2578 43.9375 48.2021 43.832 48.1553 43.709C48.1143 43.5801 48.0615 43.4541 47.9971 43.3311C47.9385 43.208 47.8447 43.1055 47.7158 43.0234C47.5869 42.9355 47.4023 42.8916 47.1621 42.8916C46.8516 42.8916 46.6113 42.9678 46.4414 43.1201C46.2773 43.2725 46.1953 43.5068 46.1953 43.8232C46.1953 44.0283 46.248 44.2012 46.3535 44.3418C46.4648 44.4766 46.6084 44.5967 46.7842 44.7021C46.9658 44.8018 47.1621 44.8984 47.373 44.9922C47.5898 45.0801 47.8037 45.1797 48.0146 45.291C48.2314 45.3965 48.4277 45.5283 48.6035 45.6865C48.7852 45.8389 48.9287 46.0293 49.0342 46.2578C49.1455 46.4863 49.2012 46.7676 49.2012 47.1016C49.2012 47.6875 49.0312 48.1562 48.6914 48.5078C48.3574 48.8535 47.8945 49.0264 47.3027 49.0264ZM52.0112 49.0264C51.8471 49.0264 51.7329 48.9766 51.6684 48.877C51.6098 48.7715 51.5805 48.6455 51.5805 48.499V42.6631C51.5805 42.5107 51.6128 42.3848 51.6772 42.2852C51.7417 42.1855 51.8559 42.1357 52.02 42.1357C52.1841 42.1357 52.2954 42.1855 52.354 42.2852C52.4184 42.3848 52.4507 42.5107 52.4507 42.6631V48.499C52.4507 48.6455 52.4184 48.7715 52.354 48.877C52.2895 48.9766 52.1753 49.0264 52.0112 49.0264ZM55.2255 49.0264C55.0966 49.0264 55.0058 48.9854 54.9531 48.9033C54.9004 48.8213 54.874 48.7217 54.874 48.6045V42.8828C54.874 42.6719 54.9179 42.4961 55.0058 42.3555C55.0937 42.209 55.2548 42.1357 55.4892 42.1357C55.6767 42.1357 55.8115 42.1943 55.8935 42.3115C55.9814 42.4287 56.0371 42.5723 56.0605 42.7422L56.79 47.1982L57.5195 42.7422C57.5488 42.5723 57.6045 42.4287 57.6865 42.3115C57.7744 42.1943 57.9121 42.1357 58.0996 42.1357C58.3339 42.1357 58.4921 42.209 58.5742 42.3555C58.6621 42.502 58.706 42.6777 58.706 42.8828V48.6045C58.706 48.7217 58.6796 48.8213 58.6269 48.9033C58.58 48.9854 58.4892 49.0264 58.3545 49.0264C58.2255 49.0264 58.1347 48.9854 58.082 48.9033C58.0293 48.8213 58.0029 48.7217 58.0029 48.6045V43.2168L57.1416 48.666C57.124 48.7598 57.0888 48.8447 57.0361 48.9209C56.9834 48.9912 56.9013 49.0264 56.79 49.0264C56.6787 49.0264 56.5966 48.9941 56.5439 48.9297C56.497 48.8594 56.4648 48.7744 56.4472 48.6748L55.5771 43.2168V48.6045C55.5771 48.7217 55.5507 48.8213 55.498 48.9033C55.4511 48.9854 55.3603 49.0264 55.2255 49.0264ZM60.0834 49.0264C59.9311 49.0264 59.8227 48.9795 59.7582 48.8857C59.6996 48.7861 59.6704 48.666 59.6704 48.5254V42.9531C59.6704 42.7598 59.7377 42.5957 59.8725 42.4609C60.0073 42.3262 60.1713 42.2588 60.3647 42.2588H61.3579C61.5571 42.2588 61.7856 42.2734 62.0434 42.3027C62.3071 42.3262 62.5268 42.3877 62.7026 42.4873C63.0014 42.6572 63.2153 42.8799 63.3442 43.1553C63.4789 43.4307 63.5463 43.7383 63.5463 44.0781C63.5463 44.7109 63.3793 45.1914 63.0454 45.5195C62.7114 45.8477 62.228 46.0146 61.5952 46.0205H60.4965V48.5254C60.4965 48.666 60.4643 48.7861 60.3998 48.8857C60.3413 48.9795 60.2358 49.0264 60.0834 49.0264ZM60.4965 45.2734H61.3139C61.7534 45.2734 62.0932 45.1943 62.3334 45.0361C62.5737 44.8721 62.6938 44.5498 62.6938 44.0693C62.6938 43.6533 62.5795 43.3721 62.351 43.2256C62.1284 43.0791 61.8237 43.0059 61.437 43.0059H60.8481C60.6137 43.0059 60.4965 43.123 60.4965 43.3574V45.2734ZM65.1435 48.9033C64.956 48.9033 64.7919 48.8389 64.6513 48.71C64.5107 48.5752 64.4404 48.4111 64.4404 48.2178V42.6543C64.4404 42.5078 64.4696 42.3848 64.5282 42.2852C64.5927 42.1855 64.707 42.1357 64.871 42.1357C65.0351 42.1357 65.1464 42.1855 65.205 42.2852C65.2695 42.3848 65.3017 42.5078 65.3017 42.6543V47.8574C65.3017 48.0273 65.3866 48.1123 65.5566 48.1123H67.8593C67.9941 48.1123 68.1083 48.1416 68.2021 48.2002C68.2958 48.2529 68.3427 48.3555 68.3427 48.5078C68.3427 48.6543 68.2958 48.7568 68.2021 48.8154C68.1083 48.874 67.9941 48.9033 67.8593 48.9033H65.1435ZM69.9047 48.9033C69.7113 48.9033 69.5473 48.8359 69.4125 48.7012C69.2777 48.5605 69.2104 48.3936 69.2104 48.2002V42.9619C69.2104 42.7744 69.2777 42.6104 69.4125 42.4697C69.5531 42.3291 69.7172 42.2588 69.9047 42.2588H72.6381C72.7729 42.2588 72.8842 42.2881 72.9721 42.3467C73.06 42.3994 73.1039 42.499 73.1039 42.6455C73.1039 42.792 73.06 42.8945 72.9721 42.9531C72.8842 43.0059 72.7729 43.0322 72.6381 43.0322H70.3881C70.1537 43.0322 70.0365 43.1494 70.0365 43.3838V45.1152H72.1283C72.2631 45.1152 72.3744 45.1445 72.4623 45.2031C72.5561 45.2559 72.6029 45.3555 72.6029 45.502C72.6029 45.6484 72.5561 45.751 72.4623 45.8096C72.3744 45.8623 72.2631 45.8887 72.1283 45.8887H70.0365V47.7783C70.0365 48.0127 70.1537 48.1299 70.3881 48.1299H72.6381C72.7729 48.1299 72.8842 48.1592 72.9721 48.2178C73.06 48.2705 73.1039 48.3701 73.1039 48.5166C73.1039 48.6631 73.06 48.7656 72.9721 48.8242C72.8842 48.877 72.7729 48.9033 72.6381 48.9033H69.9047ZM79.515 48.71C79.3334 48.71 79.1781 48.6484 79.0492 48.5254C78.9261 48.3965 78.8646 48.2412 78.8646 48.0596C78.8646 47.8779 78.9291 47.7256 79.058 47.6025C79.1869 47.4736 79.3421 47.4092 79.5238 47.4092C79.6996 47.4092 79.849 47.4736 79.972 47.6025C80.1009 47.7314 80.1654 47.8838 80.1654 48.0596C80.1654 48.2354 80.1009 48.3877 79.972 48.5166C79.8431 48.6455 79.6908 48.71 79.515 48.71ZM90.2327 49.0264C89.8577 49.0264 89.5208 48.9531 89.222 48.8066C88.9232 48.6543 88.68 48.4082 88.4925 48.0684C88.4163 47.9336 88.3519 47.793 88.2991 47.6465C88.2523 47.4941 88.2288 47.3389 88.2288 47.1807C88.2288 46.8818 88.3753 46.7324 88.6683 46.7324C88.803 46.7324 88.9027 46.7705 88.9671 46.8467C89.0316 46.917 89.0814 47.0107 89.1165 47.1279C89.1517 47.2451 89.1868 47.3711 89.222 47.5059C89.2571 47.6348 89.3099 47.7578 89.3802 47.875C89.4505 47.9922 89.553 48.0889 89.6878 48.165C89.8284 48.2354 90.0159 48.2705 90.2503 48.2705C90.5726 48.2705 90.8245 48.1592 91.0062 47.9365C91.1878 47.708 91.2786 47.4414 91.2786 47.1367C91.2786 46.8906 91.223 46.6855 91.1116 46.5215C91.0062 46.3574 90.8655 46.2197 90.6898 46.1084C90.514 45.9912 90.3206 45.8857 90.1097 45.792C89.8988 45.6982 89.6849 45.6016 89.4681 45.502C89.2571 45.3965 89.0638 45.2764 88.888 45.1416C88.7122 45.001 88.5687 44.8281 88.4573 44.623C88.3519 44.4121 88.2991 44.1543 88.2991 43.8496C88.2991 43.4922 88.3782 43.1875 88.5364 42.9355C88.6946 42.6777 88.9085 42.4814 89.178 42.3467C89.4534 42.2061 89.7611 42.1357 90.1009 42.1357C90.4056 42.1357 90.7015 42.2002 90.9886 42.3291C91.2757 42.4521 91.513 42.6338 91.7005 42.874C91.8939 43.1084 91.9905 43.3926 91.9905 43.7266C91.9905 44.0078 91.8499 44.1484 91.5687 44.1484C91.428 44.1484 91.3226 44.1074 91.2523 44.0254C91.1878 43.9375 91.1321 43.832 91.0853 43.709C91.0443 43.5801 90.9915 43.4541 90.9271 43.3311C90.8685 43.208 90.7747 43.1055 90.6458 43.0234C90.5169 42.9355 90.3323 42.8916 90.0921 42.8916C89.7816 42.8916 89.5413 42.9678 89.3714 43.1201C89.2073 43.2725 89.1253 43.5068 89.1253 43.8232C89.1253 44.0283 89.178 44.2012 89.2835 44.3418C89.3948 44.4766 89.5384 44.5967 89.7142 44.7021C89.8958 44.8018 90.0921 44.8984 90.303 44.9922C90.5198 45.0801 90.7337 45.1797 90.9446 45.291C91.1614 45.3965 91.3577 45.5283 91.5335 45.6865C91.7152 45.8389 91.8587 46.0293 91.9642 46.2578C92.0755 46.4863 92.1312 46.7676 92.1312 47.1016C92.1312 47.6875 91.9613 48.1562 91.6214 48.5078C91.2874 48.8535 90.8245 49.0264 90.2327 49.0264ZM93.3855 49.0264C93.2566 49.0264 93.1658 48.9854 93.1131 48.9033C93.0604 48.8213 93.034 48.7217 93.034 48.6045V42.8828C93.034 42.6719 93.0779 42.4961 93.1658 42.3555C93.2537 42.209 93.4148 42.1357 93.6492 42.1357C93.8367 42.1357 93.9715 42.1943 94.0535 42.3115C94.1414 42.4287 94.1971 42.5723 94.2205 42.7422L94.95 47.1982L95.6795 42.7422C95.7088 42.5723 95.7645 42.4287 95.8465 42.3115C95.9344 42.1943 96.0721 42.1357 96.2596 42.1357C96.4939 42.1357 96.6521 42.209 96.7342 42.3555C96.8221 42.502 96.866 42.6777 96.866 42.8828V48.6045C96.866 48.7217 96.8396 48.8213 96.7869 48.9033C96.74 48.9854 96.6492 49.0264 96.5145 49.0264C96.3855 49.0264 96.2947 48.9854 96.242 48.9033C96.1893 48.8213 96.1629 48.7217 96.1629 48.6045V43.2168L95.3016 48.666C95.284 48.7598 95.2488 48.8447 95.1961 48.9209C95.1434 48.9912 95.0613 49.0264 94.95 49.0264C94.8387 49.0264 94.7566 48.9941 94.7039 48.9297C94.657 48.8594 94.6248 48.7744 94.6072 48.6748L93.7371 43.2168V48.6045C93.7371 48.7217 93.7107 48.8213 93.658 48.9033C93.6111 48.9854 93.5203 49.0264 93.3855 49.0264ZM98.0764 49.0264C97.9651 49.0264 97.8743 49 97.804 48.9473C97.7337 48.8945 97.6985 48.8096 97.6985 48.6924C97.6985 48.6807 97.6985 48.6572 97.6985 48.6221C97.7044 48.5869 97.7102 48.5664 97.7161 48.5605L99.1751 42.6455C99.2102 42.4932 99.2688 42.3701 99.3509 42.2764C99.4388 42.1826 99.5647 42.1357 99.7288 42.1357C99.8987 42.1357 100.025 42.1885 100.107 42.2939C100.195 42.3994 100.256 42.5283 100.291 42.6807L101.733 48.5605C101.739 48.5664 101.741 48.5869 101.741 48.6221C101.747 48.6572 101.75 48.6807 101.75 48.6924C101.75 48.8096 101.715 48.8945 101.645 48.9473C101.58 49 101.49 49.0264 101.372 49.0264C101.261 49.0264 101.173 48.9912 101.109 48.9209C101.044 48.8506 101 48.7656 100.977 48.666L100.616 47.1191H98.8411L98.472 48.666C98.4485 48.7656 98.4046 48.8506 98.3401 48.9209C98.2757 48.9912 98.1878 49.0264 98.0764 49.0264ZM99.0081 46.3984H100.441L99.7288 43.375L99.0081 46.3984ZM103.013 49.0264C102.855 49.0264 102.747 48.9766 102.688 48.877C102.63 48.7773 102.6 48.6572 102.6 48.5166V42.9883C102.6 42.7891 102.671 42.6191 102.811 42.4785C102.958 42.332 103.131 42.2588 103.33 42.2588H104.428C104.827 42.2588 105.173 42.3174 105.466 42.4346C105.764 42.5459 105.996 42.7305 106.16 42.9883C106.324 43.2402 106.406 43.5801 106.406 44.0078C106.406 44.4883 106.271 44.8574 106.002 45.1152C105.738 45.373 105.384 45.5518 104.938 45.6514C105.091 45.6924 105.237 45.748 105.378 45.8184C105.524 45.8828 105.644 45.9766 105.738 46.0996C105.838 46.2227 105.923 46.3955 105.993 46.6182C106.063 46.8408 106.122 47.0693 106.169 47.3037C106.221 47.5322 106.262 47.7227 106.292 47.875C106.321 47.9863 106.353 48.1094 106.388 48.2441C106.424 48.3789 106.441 48.5049 106.441 48.6221C106.441 48.7627 106.4 48.8652 106.318 48.9297C106.242 48.9941 106.136 49.0264 106.002 49.0264C105.855 49.0264 105.744 48.9707 105.668 48.8594C105.592 48.748 105.536 48.6016 105.501 48.4199C105.466 48.2383 105.433 48.0391 105.404 47.8223C105.381 47.5996 105.345 47.3799 105.299 47.1631C105.258 46.9404 105.19 46.7383 105.096 46.5566C105.009 46.375 104.88 46.2285 104.71 46.1172C104.54 46.0059 104.317 45.9502 104.042 45.9502H103.427V48.5166C103.427 48.6572 103.397 48.7773 103.339 48.877C103.28 48.9766 103.172 49.0264 103.013 49.0264ZM103.427 45.2031H104.112C104.382 45.2031 104.625 45.168 104.842 45.0977C105.058 45.0215 105.231 44.8955 105.36 44.7197C105.489 44.5439 105.553 44.3096 105.553 44.0166C105.553 43.6475 105.439 43.3867 105.211 43.2344C104.988 43.082 104.707 43.0059 104.367 43.0059H103.796C103.684 43.0059 103.594 43.0381 103.523 43.1025C103.459 43.167 103.427 43.2578 103.427 43.375V45.2031ZM109.26 49.0352C109.096 49.0352 108.982 48.9854 108.917 48.8857C108.859 48.7803 108.829 48.6543 108.829 48.5078V43.041H107.66C107.531 43.041 107.426 43.0117 107.344 42.9531C107.268 42.8887 107.23 42.7861 107.23 42.6455C107.23 42.5107 107.268 42.4141 107.344 42.3555C107.426 42.291 107.531 42.2588 107.66 42.2588H110.851C110.986 42.2588 111.091 42.291 111.167 42.3555C111.249 42.4141 111.29 42.5137 111.29 42.6543C111.29 42.7949 111.249 42.8945 111.167 42.9531C111.085 43.0117 110.98 43.041 110.851 43.041H109.691V48.5078C109.691 48.6543 109.658 48.7803 109.594 48.8857C109.535 48.9854 109.424 49.0352 109.26 49.0352ZM117.675 48.71C117.493 48.71 117.338 48.6484 117.209 48.5254C117.086 48.3965 117.025 48.2412 117.025 48.0596C117.025 47.8779 117.089 47.7256 117.218 47.6025C117.347 47.4736 117.502 47.4092 117.684 47.4092C117.86 47.4092 118.009 47.4736 118.132 47.6025C118.261 47.7314 118.325 47.8838 118.325 48.0596C118.325 48.2354 118.261 48.3877 118.132 48.5166C118.003 48.6455 117.851 48.71 117.675 48.71ZM126.863 49.0264C126.705 49.0264 126.597 48.9766 126.538 48.877C126.48 48.7773 126.45 48.6572 126.45 48.5166V42.9883C126.45 42.7891 126.521 42.6191 126.661 42.4785C126.808 42.332 126.981 42.2588 127.18 42.2588H128.278C128.677 42.2588 129.023 42.3174 129.316 42.4346C129.614 42.5459 129.846 42.7305 130.01 42.9883C130.174 43.2402 130.256 43.5801 130.256 44.0078C130.256 44.4883 130.121 44.8574 129.852 45.1152C129.588 45.373 129.234 45.5518 128.788 45.6514C128.941 45.6924 129.087 45.748 129.228 45.8184C129.374 45.8828 129.494 45.9766 129.588 46.0996C129.688 46.2227 129.773 46.3955 129.843 46.6182C129.913 46.8408 129.972 47.0693 130.019 47.3037C130.071 47.5322 130.112 47.7227 130.142 47.875C130.171 47.9863 130.203 48.1094 130.238 48.2441C130.274 48.3789 130.291 48.5049 130.291 48.6221C130.291 48.7627 130.25 48.8652 130.168 48.9297C130.092 48.9941 129.986 49.0264 129.852 49.0264C129.705 49.0264 129.594 48.9707 129.518 48.8594C129.442 48.748 129.386 48.6016 129.351 48.4199C129.316 48.2383 129.283 48.0391 129.254 47.8223C129.231 47.5996 129.195 47.3799 129.149 47.1631C129.108 46.9404 129.04 46.7383 128.946 46.5566C128.859 46.375 128.73 46.2285 128.56 46.1172C128.39 46.0059 128.167 45.9502 127.892 45.9502H127.277V48.5166C127.277 48.6572 127.247 48.7773 127.189 48.877C127.13 48.9766 127.022 49.0264 126.863 49.0264ZM127.277 45.2031H127.962C128.232 45.2031 128.475 45.168 128.692 45.0977C128.908 45.0215 129.081 44.8955 129.21 44.7197C129.339 44.5439 129.403 44.3096 129.403 44.0166C129.403 43.6475 129.289 43.3867 129.061 43.2344C128.838 43.082 128.557 43.0059 128.217 43.0059H127.646C127.534 43.0059 127.444 43.0381 127.373 43.1025C127.309 43.167 127.277 43.2578 127.277 43.375V45.2031ZM131.915 48.9033C131.721 48.9033 131.557 48.8359 131.423 48.7012C131.288 48.5605 131.22 48.3936 131.22 48.2002V42.9619C131.22 42.7744 131.288 42.6104 131.423 42.4697C131.563 42.3291 131.727 42.2588 131.915 42.2588H134.648C134.783 42.2588 134.894 42.2881 134.982 42.3467C135.07 42.3994 135.114 42.499 135.114 42.6455C135.114 42.792 135.07 42.8945 134.982 42.9531C134.894 43.0059 134.783 43.0322 134.648 43.0322H132.398C132.164 43.0322 132.047 43.1494 132.047 43.3838V45.1152H134.138C134.273 45.1152 134.384 45.1445 134.472 45.2031C134.566 45.2559 134.613 45.3555 134.613 45.502C134.613 45.6484 134.566 45.751 134.472 45.8096C134.384 45.8623 134.273 45.8887 134.138 45.8887H132.047V47.7783C132.047 48.0127 132.164 48.1299 132.398 48.1299H134.648C134.783 48.1299 134.894 48.1592 134.982 48.2178C135.07 48.2705 135.114 48.3701 135.114 48.5166C135.114 48.6631 135.07 48.7656 134.982 48.8242C134.894 48.877 134.783 48.9033 134.648 48.9033H131.915ZM136.693 48.9033C136.506 48.9033 136.342 48.8389 136.201 48.71C136.061 48.5752 135.99 48.4111 135.99 48.2178V42.6543C135.99 42.5078 136.02 42.3848 136.078 42.2852C136.143 42.1855 136.257 42.1357 136.421 42.1357C136.585 42.1357 136.696 42.1855 136.755 42.2852C136.819 42.3848 136.852 42.5078 136.852 42.6543V47.8574C136.852 48.0273 136.937 48.1123 137.107 48.1123H139.409C139.544 48.1123 139.658 48.1416 139.752 48.2002C139.846 48.2529 139.893 48.3555 139.893 48.5078C139.893 48.6543 139.846 48.7568 139.752 48.8154C139.658 48.874 139.544 48.9033 139.409 48.9033H136.693ZM142.641 49.0264C142.477 49.0264 142.363 48.9766 142.298 48.877C142.24 48.7715 142.211 48.6455 142.211 48.499V42.6631C142.211 42.5107 142.243 42.3848 142.307 42.2852C142.372 42.1855 142.486 42.1357 142.65 42.1357C142.814 42.1357 142.925 42.1855 142.984 42.2852C143.048 42.3848 143.081 42.5107 143.081 42.6631V48.499C143.081 48.6455 143.048 48.7715 142.984 48.877C142.92 48.9766 142.805 49.0264 142.641 49.0264ZM145.776 49.0264C145.665 49.0264 145.574 49 145.504 48.9473C145.434 48.8945 145.399 48.8096 145.399 48.6924C145.399 48.6807 145.399 48.6572 145.399 48.6221C145.404 48.5869 145.41 48.5664 145.416 48.5605L146.875 42.6455C146.91 42.4932 146.969 42.3701 147.051 42.2764C147.139 42.1826 147.265 42.1357 147.429 42.1357C147.599 42.1357 147.725 42.1885 147.807 42.2939C147.895 42.3994 147.956 42.5283 147.991 42.6807L149.433 48.5605C149.439 48.5664 149.441 48.5869 149.441 48.6221C149.447 48.6572 149.45 48.6807 149.45 48.6924C149.45 48.8096 149.415 48.8945 149.345 48.9473C149.28 49 149.19 49.0264 149.072 49.0264C148.961 49.0264 148.873 48.9912 148.809 48.9209C148.744 48.8506 148.7 48.7656 148.677 48.666L148.316 47.1191H146.541L146.172 48.666C146.149 48.7656 146.105 48.8506 146.04 48.9209C145.976 48.9912 145.888 49.0264 145.776 49.0264ZM146.708 46.3984H148.141L147.429 43.375L146.708 46.3984ZM151.083 48.9033C150.866 48.9033 150.681 48.8301 150.529 48.6836C150.377 48.5312 150.3 48.3467 150.3 48.1299V43.0322C150.3 42.8213 150.377 42.6396 150.529 42.4873C150.687 42.335 150.872 42.2588 151.083 42.2588H151.918C152.293 42.2588 152.635 42.2998 152.946 42.3818C153.256 42.458 153.505 42.6104 153.693 42.8389C153.88 43.0615 153.974 43.3955 153.974 43.8408C153.974 44.2334 153.878 44.5645 153.684 44.834C153.491 45.0977 153.212 45.2969 152.849 45.4316C153.277 45.5547 153.599 45.7568 153.816 46.0381C154.039 46.3135 154.15 46.6768 154.15 47.1279C154.15 47.5146 154.062 47.8398 153.886 48.1035C153.716 48.3672 153.482 48.5664 153.183 48.7012C152.89 48.8359 152.559 48.9033 152.19 48.9033H151.083ZM151.127 45.0801H151.856C152.237 45.0801 152.544 44.9922 152.779 44.8164C153.019 44.6348 153.139 44.3447 153.139 43.9463C153.139 43.5713 153.043 43.3223 152.849 43.1992C152.656 43.0703 152.386 43.0059 152.041 43.0059H151.469C151.364 43.0059 151.279 43.0381 151.214 43.1025C151.156 43.167 151.127 43.252 151.127 43.3574V45.0801ZM151.478 48.1562H151.935C152.199 48.1562 152.433 48.1211 152.638 48.0508C152.849 47.9805 153.013 47.8633 153.13 47.6992C153.253 47.5293 153.315 47.3008 153.315 47.0137C153.315 46.7148 153.251 46.4805 153.122 46.3105C152.999 46.1348 152.829 46.0117 152.612 45.9414C152.401 45.8652 152.161 45.8271 151.891 45.8271H151.127V47.8047C151.127 48.0391 151.244 48.1562 151.478 48.1562ZM155.773 48.9033C155.586 48.9033 155.422 48.8389 155.281 48.71C155.141 48.5752 155.07 48.4111 155.07 48.2178V42.6543C155.07 42.5078 155.1 42.3848 155.158 42.2852C155.223 42.1855 155.337 42.1357 155.501 42.1357C155.665 42.1357 155.776 42.1855 155.835 42.2852C155.899 42.3848 155.932 42.5078 155.932 42.6543V47.8574C155.932 48.0273 156.017 48.1123 156.187 48.1123H158.489C158.624 48.1123 158.738 48.1416 158.832 48.2002C158.926 48.2529 158.973 48.3555 158.973 48.5078C158.973 48.6543 158.926 48.7568 158.832 48.8154C158.738 48.874 158.624 48.9033 158.489 48.9033H155.773ZM160.535 48.9033C160.341 48.9033 160.177 48.8359 160.043 48.7012C159.908 48.5605 159.84 48.3936 159.84 48.2002V42.9619C159.84 42.7744 159.908 42.6104 160.043 42.4697C160.183 42.3291 160.347 42.2588 160.535 42.2588H163.268C163.403 42.2588 163.514 42.2881 163.602 42.3467C163.69 42.3994 163.734 42.499 163.734 42.6455C163.734 42.792 163.69 42.8945 163.602 42.9531C163.514 43.0059 163.403 43.0322 163.268 43.0322H161.018C160.784 43.0322 160.667 43.1494 160.667 43.3838V45.1152H162.758C162.893 45.1152 163.004 45.1445 163.092 45.2031C163.186 45.2559 163.233 45.3555 163.233 45.502C163.233 45.6484 163.186 45.751 163.092 45.8096C163.004 45.8623 162.893 45.8887 162.758 45.8887H160.667V47.7783C160.667 48.0127 160.784 48.1299 161.018 48.1299H163.268C163.403 48.1299 163.514 48.1592 163.602 48.2178C163.69 48.2705 163.734 48.3701 163.734 48.5166C163.734 48.6631 163.69 48.7656 163.602 48.8242C163.514 48.877 163.403 48.9033 163.268 48.9033H160.535Z" fill="white"/>
</svg>
